<?xml version="1.0" encoding="UTF-8" standalone="no"?>
<svg
   width="595.00299"
   height="525.672"
   version="1.1"
   id="svg1"
   sodipodi:docname="bluesky-logo.svg"
   inkscape:version="1.4.2 (f4327f4, 2025-05-13)"
   xmlns:inkscape="http://www.inkscape.org/namespaces/inkscape"
   xmlns:sodipodi="http://sodipodi.sourceforge.net/DTD/sodipodi-0.dtd"
   xmlns="http://www.w3.org/2000/svg"
   xmlns:svg="http://www.w3.org/2000/svg">
  <defs
     id="defs1" />
  <sodipodi:namedview
     id="namedview1"
     pagecolor="#ffffff"
     bordercolor="#000000"
     borderopacity="0.25"
     inkscape:showpageshadow="2"
     inkscape:pageopacity="0.0"
     inkscape:pagecheckerboard="0"
     inkscape:deskcolor="#d1d1d1"
     inkscape:zoom="1.4584906"
     inkscape:cx="299.96765"
     inkscape:cy="265.68563"
     inkscape:current-layer="svg1" />
  <path
     d="m 133.2232,41.874563 c 66.496,49.921 138.02,151.140007 164.28,205.460007 26.262,-54.316 97.782,-155.540007 164.28,-205.460007 47.98,-36.0209999 125.72,-63.892 125.72,24.795 0,17.712 -10.155,114.507987 -16.111,135.787987 -20.703,73.984 -96.144,127.13602 -163.25,115.71502 117.3,19.964 147.14,86.092 82.697,152.22 -122.39,125.59 -175.91,-31.511 -189.63,-71.766 -2.514,-7.3797 -3.6904,-10.832 -3.7077,-7.8964 -0.0174,-2.9357 -1.1937,0.51669 -3.7077,7.8964 -13.714,40.255 -67.233,197.36 -189.63,71.766 -64.444005,-66.128 -34.605005,-132.26 82.697,-152.22 C 119.7528,329.59357 51.167198,276.44145 30.467198,202.45755 24.510998,181.17555 7.4997954,84.379563 7.4997954,66.669563 c 0,-88.687 77.7419996,-60.8159999 125.7200046,-24.795 z"
     fill="#1185fe"
     id="path1"
     style="fill:none;fill-opacity:1;stroke:#000000;stroke-width:15;stroke-dasharray:none;stroke-opacity:1"
     sodipodi:nodetypes="cccsccsccccccscc" />
</svg>
