<?xml version="1.0" encoding="UTF-8" standalone="no"?>
<!-- Uploaded to: SVG Repo, www.svgrepo.com, Generator: SVG Repo Mixer Tools -->

<svg
   width="800"
   height="578"
   viewBox="0 0 36 26.01"
   aria-hidden="true"
   role="img"
   class="iconify iconify--twemoji"
   preserveAspectRatio="xMidYMid"
   version="1.1"
   id="svg6"
   sodipodi:docname="brazilian-logo.svg"
   inkscape:version="1.4.2 (f4327f4, 2025-05-13)"
   xmlns:inkscape="http://www.inkscape.org/namespaces/inkscape"
   xmlns:sodipodi="http://sodipodi.sourceforge.net/DTD/sodipodi-0.dtd"
   xmlns="http://www.w3.org/2000/svg"
   xmlns:svg="http://www.w3.org/2000/svg">
  <defs
     id="defs6" />
  <sodipodi:namedview
     id="namedview6"
     pagecolor="#ffffff"
     bordercolor="#000000"
     borderopacity="0.25"
     inkscape:showpageshadow="2"
     inkscape:pageopacity="0.0"
     inkscape:pagecheckerboard="0"
     inkscape:deskcolor="#d1d1d1"
     inkscape:zoom="0.96625"
     inkscape:cx="400"
     inkscape:cy="400"
     inkscape:current-layer="svg6" />
  <g
     id="g6"
     inkscape:label="Brazilian Flag"
     transform="translate(0,-5)">
    <path
       fill="#009b3a"
       d="M 36,27.008462 A 4,4.0015385 0 0 1 32,31.01 H 4 A 4,4.0015385 0 0 1 0,27.008462 V 9.0015385 A 4,4.0015385 0 0 1 4,5 h 28 a 4,4.0015385 0 0 1 4,4.0015385 z"
       id="path1"
       style="stroke-width:1.00019" />
    <path
       fill="#fedf01"
       d="M 32.728,18 18,29.124 3.272,18 18,6.875 Z"
       id="path2" />
    <circle
       fill="#002776"
       cx="17.976"
       cy="17.924"
       r="6.4580002"
       id="circle2" />
    <path
       fill="#cbe9d4"
       d="m 12.277,14.887 a 6.406,6.406 0 0 0 -0.672,2.023 c 3.995,-0.29 9.417,1.891 11.744,4.595 0.402,-0.604 0.7,-1.28 0.883,-2.004 -2.872,-2.808 -7.917,-4.63 -11.955,-4.614 z"
       id="path3" />
    <path
       fill="#88c9f9"
       d="m 12,18.233 h 1 v 1 h -1 z m 1,2 h 1 v 1 h -1 z"
       id="path4" />
    <path
       fill="#55acee"
       d="m 15,18.233 h 1 v 1 h -1 z m 2,1 h 1 v 1 h -1 z m 4,2 h 1 v 1 h -1 z m -3,1 h 1 v 1 h -1 z m 3,-6 h 1 v 1 h -1 z"
       id="path5" />
    <path
       fill="#3b88c3"
       d="m 19,20.233 h 1 v 1 h -1 z"
       id="path6" />
  </g>
</svg>
