<?xml version="1.0" encoding="UTF-8" standalone="no"?>
<!-- Uploaded to: SVG Repo, www.svgrepo.com, Generator: SVG Repo Mixer Tools -->

<svg
   width="502.39999"
   height="547.20001"
   viewBox="0 0 31.4 34.200001"
   id="Message_And_Communication_Icons"
   version="1.1"
   xml:space="preserve"
   sodipodi:docname="email-logo.svg"
   inkscape:version="1.4.2 (f4327f4, 2025-05-13)"
   xmlns:inkscape="http://www.inkscape.org/namespaces/inkscape"
   xmlns:sodipodi="http://sodipodi.sourceforge.net/DTD/sodipodi-0.dtd"
   xmlns="http://www.w3.org/2000/svg"
   xmlns:svg="http://www.w3.org/2000/svg"><defs
   id="defs23">























</defs><sodipodi:namedview
   id="namedview23"
   pagecolor="#ffffff"
   bordercolor="#000000"
   borderopacity="0.25"
   inkscape:showpageshadow="2"
   inkscape:pageopacity="0.0"
   inkscape:pagecheckerboard="0"
   inkscape:deskcolor="#d1d1d1"
   inkscape:zoom="0.94158925"
   inkscape:cx="288.87331"
   inkscape:cy="381.8013"
   inkscape:current-layer="g23" />

<g
   id="g23"
   inkscape:label="imail"
   transform="translate(-10,-8.6)"><g
     id="g2"
     style="display:inline;fill:#abaca8;fill-opacity:1"
     inkscape:label="sombra 6">

<g
   id="g1"
   style="fill:#abaca8;fill-opacity:1">

<polygon
   points="25.3,30.2 37.5,22.4 37.5,25.3 25.3,33 "
   style="fill:#abaca8;fill-opacity:1"
   id="polygon1" />

</g>

</g><g
     id="g4"
     style="fill:#abaca8;fill-opacity:1"
     inkscape:label="sombra 5">

<g
   id="g3"
   style="fill:#abaca8;fill-opacity:1">

<polygon
   points="32.6,11 35.3,11 35.3,25.4 32.6,27.1 "
   style="fill:#abaca8;fill-opacity:1"
   id="polygon2" />

</g>

</g><g
     id="g6"
     style="fill:#abaca8;fill-opacity:1"
     inkscape:label="sombra 4">

<g
   id="g5"
   style="fill:#abaca8;fill-opacity:1">

<rect
   height="3.9000001"
   style="fill:#abaca8;fill-opacity:1"
   width="16.1"
   x="25.299999"
   y="38.900002"
   id="rect4" />

</g>

</g><g
     id="g8"
     style="fill:#abaca8;fill-opacity:1"
     inkscape:label="sombra 3">

<g
   id="g7"
   style="fill:#abaca8;fill-opacity:1">

<polygon
   points="41.4,42.8 37.2,42.8 37.2,26.9 41.4,24.1 "
   style="fill:#abaca8;fill-opacity:1"
   id="polygon6" />

</g>

</g><g
     id="g10"
     style="fill:#00040c;fill-opacity:1">

<g
   id="g9"
   style="fill:#00040c;fill-opacity:1">

<polygon
   points="10,22.5 11.2,22.5 11.2,40.5 39.3,40.5 39.3,22.5 40.5,22.5 40.5,41.7 10,41.7 "
   style="fill:#00040c;fill-opacity:1"
   id="polygon8" />

</g>

</g><g
     id="g12"
     style="fill:#00040c;fill-opacity:1">

<g
   id="g11"
   style="fill:#00040c;fill-opacity:1">

<path
   d="m 25.3,32.4 c -0.1,0 -0.2,0 -0.3,-0.1 L 10.3,23 C 10.1,22.9 10,22.7 10,22.5 10,22.3 10.1,22.1 10.3,22 l 5.7,-3.6 0.6,1 -4.9,3.1 13.5,8.6 13.5,-8.6 -4.9,-3.1 0.6,-1 5.7,3.6 c 0.2,0.1 0.3,0.3 0.3,0.5 0,0.2 -0.1,0.4 -0.3,0.5 l -14.6,9.3 c 0,0.1 -0.1,0.1 -0.2,0.1 z"
   style="fill:#00040c;fill-opacity:1"
   id="path10" />

</g>

</g><g
     id="g14"
     style="fill:#000000;fill-opacity:1"
     inkscape:label="sombra 2"
     transform="translate(0.94137714,-0.875)">

<g
   id="g13"
   style="fill:#000000;fill-opacity:1">

<rect
   height="4.5999999"
   style="fill:#000000;fill-opacity:1"
   width="1.5"
   x="12.8"
   y="34.700001"
   id="rect12" />

</g>

</g><g
     id="g16"
     style="fill:#000000;fill-opacity:1"
     inkscape:label="sombra 1"
     transform="translate(0.94137714,-0.875)">

<g
   id="g15"
   style="fill:#000000;fill-opacity:1">

<rect
   height="1.5"
   style="fill:#000000;fill-opacity:1"
   width="1.5"
   x="12.8"
   y="31.799999"
   id="rect14" />

</g>

</g><g
     id="g18"
     style="fill:#00040c;fill-opacity:1">

<g
   id="g17"
   style="fill:#00040c;fill-opacity:1">

<polygon
   points="33.6,9.8 17,9.8 17,26 15.8,26 15.8,8.6 34.8,8.6 34.8,26.2 33.6,26.2 "
   style="fill:#00040c;fill-opacity:1"
   id="polygon16" />

</g>

</g><g
     id="g20"
     style="fill:#00040c;fill-opacity:1">

<g
   id="g19"
   style="fill:#00040c;fill-opacity:1">

<polygon
   points="30.5,27.8 31.2,28.8 25.3,32.5 19.6,29 20.3,27.9 25.3,31.1 "
   style="fill:#00040c;fill-opacity:1"
   id="polygon18" />

</g>

</g><g
     id="g22"
     style="fill:#00040c;fill-opacity:1"
     transform="matrix(1.1731578,0,0,1.1731578,-4.1877431,-3.9653126)">

<g
   id="g21"
   style="fill:#00040c;fill-opacity:1">

<path
   d="m 28.8,22.9 h -1.5 c -0.5,0 -1,-0.4 -1,-1 V 20.6 H 24 c -0.5,0 -1,-0.4 -1,-1 v -2.3 c 0,-0.5 0.4,-1 1,-1 h 2.5 c 0.5,0 1,0.4 1,1 v 4.3 h 1.1 V 15 H 22 v 6.6 h 3 v 1.2 h -3.3 c -0.5,0 -1,-0.4 -1,-1 v -7.1 c 0,-0.5 0.4,-1 1,-1 h 7.1 c 0.5,0 1,0.4 1,1 v 7.1 c 0,0.6 -0.5,1.1 -1,1.1 z m -4.5,-3.5 h 2 v -1.8 h -2 z"
   style="fill:#00040c;fill-opacity:1"
   id="path20" />

</g>

</g></g>

</svg>
