<?xml version="1.0" encoding="UTF-8" standalone="no"?>
<!-- Uploaded to: SVG Repo, www.svgrepo.com, Generator: SVG Repo Mixer Tools -->

<svg
   fill="#000000"
   width="555.24902"
   height="555.24902"
   viewBox="-5.5 0 22.209961 22.209961"
   version="1.1"
   id="svg1"
   sodipodi:docname="insta-logo.svg"
   inkscape:version="1.4.2 (f4327f4, 2025-05-13)"
   xmlns:inkscape="http://www.inkscape.org/namespaces/inkscape"
   xmlns:sodipodi="http://sodipodi.sourceforge.net/DTD/sodipodi-0.dtd"
   xmlns="http://www.w3.org/2000/svg"
   xmlns:svg="http://www.w3.org/2000/svg"
   xmlns:rdf="http://www.w3.org/1999/02/22-rdf-syntax-ns#"
   xmlns:cc="http://creativecommons.org/ns#"
   xmlns:dc="http://purl.org/dc/elements/1.1/">
  <defs
     id="defs1" />
  <sodipodi:namedview
     id="namedview1"
     pagecolor="#ffffff"
     bordercolor="#000000"
     borderopacity="0.25"
     inkscape:showpageshadow="2"
     inkscape:pageopacity="0.0"
     inkscape:pagecheckerboard="0"
     inkscape:deskcolor="#d1d1d1"
     inkscape:zoom="1.3921681"
     inkscape:cx="277.26536"
     inkscape:cy="277.62451"
     inkscape:current-layer="g6" />
  <title
     id="title1">instagram</title>
  <metadata
     id="metadata1">
    <rdf:RDF>
      <cc:Work
         rdf:about="">
        <dc:title>instagram</dc:title>
      </cc:Work>
    </rdf:RDF>
  </metadata>
  <g
     id="g6"
     inkscape:label="Camera"
     transform="translate(-0.8950195,-0.8950195)">
    <rect
       style="display:inline;fill:none;fill-opacity:1;fill-rule:evenodd;stroke:#000000;stroke-width:0.959976;stroke-linecap:round;stroke-opacity:1"
       id="rect1"
       width="21.25"
       height="21.25"
       x="-4.125"
       y="1.375"
       rx="2.0802069"
       ry="2.0802069"
       inkscape:label="Base" />
    <g
       id="g4"
       inkscape:label="grade"
       style="display:inline;fill:none;fill-opacity:0;stroke:#000000;stroke-opacity:1"
       transform="matrix(1.1970444,0,-8.3794988e-4,0.99010651,0.46583755,0.6731499)">
      <rect
         style="fill:none;fill-opacity:0;fill-rule:evenodd;stroke:#000000;stroke-width:0.243389;stroke-linecap:round;stroke-opacity:1"
         id="rect3"
         width="1.0643017"
         height="4.8747597"
         x="-2.2817757"
         y="3.2485492"
         inkscape:label="grade-3" />
      <rect
         style="fill:none;fill-opacity:0;fill-rule:evenodd;stroke:#000000;stroke-width:0.243389;stroke-linecap:round;stroke-opacity:1"
         id="rect3-8"
         width="1.0643017"
         height="4.8747597"
         x="-0.15655014"
         y="3.2497284"
         inkscape:label="grade-2" />
      <rect
         style="fill:none;fill-opacity:0;fill-rule:evenodd;stroke:#000000;stroke-width:0.243389;stroke-linecap:round;stroke-opacity:1"
         id="rect3-5"
         width="1.0643017"
         height="4.8747597"
         x="1.9701868"
         y="3.2479012"
         inkscape:label="grade-1" />
    </g>
    <rect
       style="display:inline;fill:none;fill-opacity:1;fill-rule:evenodd;stroke:#000000;stroke-width:0.391861;stroke-linecap:round;stroke-dasharray:none;stroke-opacity:1"
       id="rect2"
       width="4.8881388"
       height="4.8881388"
       x="10.360221"
       y="3.7536798"
       rx="0"
       ry="0"
       inkscape:label="flash" />
    <g
       id="g7"
       inkscape:label="Lente"
       transform="translate(0,2.24)">
      <circle
         style="display:inline;fill:#ffffff;fill-opacity:1;fill-rule:evenodd;stroke:#000000;stroke-width:0.8;stroke-linecap:round;stroke-dasharray:none;stroke-dashoffset:0;stroke-opacity:1"
         id="path4"
         cx="6.5"
         cy="12"
         r="6.2980256"
         inkscape:label="lente1" />
      <circle
         style="display:inline;fill:#000000;fill-opacity:1;fill-rule:evenodd;stroke:none;stroke-width:0.133456;stroke-linecap:round"
         id="path4-1"
         cx="6.5"
         cy="12.000001"
         r="3.9753692"
         inkscape:label="lente2" />
    </g>
  </g>
  <g
     id="g3"
     style="display:none;fill:#1d3366;fill-opacity:1;stroke:none;stroke-width:2.4;stroke-dasharray:none;stroke-opacity:1"
     transform="translate(-4.125,-4.219)">
    <path
       d="m 10.625,20.219 c 2.219,0 3.969,-1.781 3.969,-4 0,-2.219 -1.75,-3.969 -3.969,-3.969 -2.219,0 -4,1.75 -4,3.969 0,2.219 1.781,4 4,4 z"
       id="path3"
       style="fill:#1d3366;fill-opacity:1;stroke:none;stroke-width:2.4;stroke-dasharray:none;stroke-opacity:1" />
    <path
       d="m 21.25,16.063 h -4.781 v 0.156 c 0,3.219 -2.625,5.844 -5.844,5.844 -3.219,0 -5.844,-2.625 -5.844,-5.844 V 16.063 H 0 v 8.656 c 0,1.156 0.969,2.125 2.125,2.125 h 17 c 1.156,0 2.125,-0.969 2.125,-2.125 z"
       id="path2"
       style="fill:#1d3366;fill-opacity:1;stroke:none;stroke-width:2.4;stroke-dasharray:none;stroke-opacity:1" />
    <path
       d="M 21.25,14.188 V 7.719 c 0,-1.156 -0.969,-2.125 -2.125,-2.125 h -17 C 0.969,5.594 0,6.563 0,7.719 v 6.469 h 5.156 c 0.813,-2.219 2.969,-3.813 5.469,-3.813 2.5,0 4.656,1.594 5.469,3.813 z M 1.844,7.469 h 1.063 v 4.875 H 1.844 Z m 2.125,0 h 1.063 v 4.875 H 3.969 Z m 2.125,0 h 1.063 v 3.063 c -0.344,0.25 -0.719,0.531 -1.063,0.813 V 7.47 Z m 8.25,0 h 5.031 v 4.875 H 16 c -0.438,-0.656 -1.031,-1.188 -1.656,-1.625 z"
       id="path1"
       style="fill:#1d3366;fill-opacity:1;stroke:none;stroke-width:2.4;stroke-dasharray:none;stroke-opacity:1" />
  </g>
</svg>
