<?xml version="1.0" encoding="UTF-8" standalone="no"?>
<svg
   width="400"
   height="400"
   viewBox="0 0 399.99999 400.00001"
   version="1.1"
   id="svg8"
   inkscape:version="1.4.2 (f4327f4, 2025-05-13)"
   sodipodi:docname="lattes-logo-dark.svg"
   xmlns:inkscape="http://www.inkscape.org/namespaces/inkscape"
   xmlns:sodipodi="http://sodipodi.sourceforge.net/DTD/sodipodi-0.dtd"
   xmlns="http://www.w3.org/2000/svg"
   xmlns:svg="http://www.w3.org/2000/svg"
   xmlns:rdf="http://www.w3.org/1999/02/22-rdf-syntax-ns#"
   xmlns:cc="http://creativecommons.org/ns#"
   xmlns:dc="http://purl.org/dc/elements/1.1/">
  <title
     id="title839">Plataforma Lattes</title>
  <defs
     id="defs2">
    <clipPath
       clipPathUnits="userSpaceOnUse"
       id="clipPath1">
      <rect
         style="fill:#af0000;fill-opacity:0.511149;fill-rule:evenodd;stroke:none;stroke-width:15.2713;stroke-linecap:round"
         id="rect2"
         width="316.60544"
         height="322.56662"
         x="66.235443"
         y="94.71669" />
    </clipPath>
  </defs>
  <sodipodi:namedview
     id="base"
     pagecolor="#0a0f1e"
     bordercolor="#666666"
     borderopacity="1.0"
     inkscape:pageopacity="0.0"
     inkscape:pageshadow="2"
     inkscape:zoom="1.9527672"
     inkscape:cx="202.02101"
     inkscape:cy="198.94845"
     inkscape:document-units="px"
     inkscape:current-layer="g5"
     inkscape:document-rotation="0"
     showgrid="false"
     units="px"
     showguides="false"
     inkscape:guide-bbox="true"
     inkscape:window-width="1315"
     inkscape:window-height="713"
     inkscape:window-x="51"
     inkscape:window-y="27"
     inkscape:window-maximized="1"
     inkscape:showpageshadow="2"
     inkscape:pagecheckerboard="0"
     inkscape:deskcolor="#d1d1d1">
    <inkscape:grid
       type="xygrid"
       id="grid10"
       empspacing="4"
       originx="0"
       originy="0"
       spacingy="1"
       spacingx="1"
       units="px"
       visible="false" />
    <sodipodi:guide
       position="448,402.89203"
       orientation="0,1"
       id="guide832"
       inkscape:label=""
       inkscape:locked="false"
       inkscape:color="rgb(0,0,255)" />
    <sodipodi:guide
       position="448,82.892028"
       orientation="0,1"
       id="guide834"
       inkscape:label=""
       inkscape:locked="false"
       inkscape:color="rgb(0,0,255)" />
    <sodipodi:guide
       position="448,50.892029"
       orientation="0,1"
       id="guide836"
       inkscape:label="baseline"
       inkscape:locked="false"
       inkscape:color="rgb(0,0,255)" />
    <sodipodi:guide
       id="guide835"
       orientation="1,0"
       position="64,498.89203"
       inkscape:locked="false" />
    <sodipodi:guide
       id="guide837"
       orientation="1,0"
       position="384,498.89203"
       inkscape:locked="false" />
  </sodipodi:namedview>
  <metadata
     id="metadata5">
    <rdf:RDF>
      <cc:Work
         rdf:about="">
        <dc:format>image/svg+xml</dc:format>
        <dc:type
           rdf:resource="http://purl.org/dc/dcmitype/StillImage" />
        <dc:title>Plataforma Lattes</dc:title>
        <cc:license
           rdf:resource="http://scripts.sil.org/OFL" />
        <dc:subject>
          <rdf:Bag>
            <rdf:li>Plataforma Lattes</rdf:li>
          </rdf:Bag>
        </dc:subject>
      </cc:Work>
      <cc:License
         rdf:about="http://scripts.sil.org/OFL">
        <cc:permits
           rdf:resource="http://scripts.sil.org/pub/OFL/Reproduction" />
        <cc:permits
           rdf:resource="http://scripts.sil.org/pub/OFL/Distribution" />
        <cc:permits
           rdf:resource="http://scripts.sil.org/pub/OFL/Embedding" />
        <cc:permits
           rdf:resource="http://scripts.sil.org/pub/OFL/DerivativeWorks" />
        <cc:requires
           rdf:resource="http://scripts.sil.org/pub/OFL/Notice" />
        <cc:requires
           rdf:resource="http://scripts.sil.org/pub/OFL/Attribution" />
        <cc:requires
           rdf:resource="http://scripts.sil.org/pub/OFL/ShareAlike" />
        <cc:requires
           rdf:resource="http://scripts.sil.org/pub/OFL/DerivativeRenaming" />
        <cc:requires
           rdf:resource="http://scripts.sil.org/pub/OFL/BundlingWhenSelling" />
      </cc:License>
    </rdf:RDF>
  </metadata>
  <g
     inkscape:groupmode="layer"
     id="layer6"
     inkscape:label="icon">
    <g
       id="g5"
       inkscape:label="Lattes">
      <path
         style="display:inline;stroke-width:1.20578;fill:#4287ff;fill-opacity:1"
         d="m 321.80367,90.690384 c 7.14796,-0.847142 42.42981,33.406816 55.42325,53.805356 22.39697,35.17802 24.21615,73.23384 5.25643,110.03404 -11.64602,22.60883 -24.51687,38.25104 -46.06673,56.03085 -35.81459,29.53 -77.44412,50.09405 -134.92903,66.66147 -30.87739,8.90509 -80.80741,19.70216 -91.0902,19.70216 -2.17999,0 -6.26845,-7.14802 -19.01921,-33.30011 l -0.03062,0.014 C 49.960542,278.83375 25.33609,227.61851 25.33609,226.34716 c 0,-2.07407 2.529829,-1.78626 27.396059,3.08981 43.734065,8.58681 67.099461,11.00937 106.049331,11.02389 51.5331,0.014 93.4982,-8.14614 126.1024,-24.54647 17.24877,-8.67692 27.62135,-16.37128 36.11671,-26.7908 10.46437,-12.84217 13.82559,-21.68537 13.94649,-36.57127 0.10596,-14.1588 -1.8023,-21.625 -9.99475,-38.94981 -3.24121,-6.84553 -6.08924,-14.703011 -6.36092,-17.460198 -0.4242,-4.437384 -0.0593,-5.074299 3.21226,-5.451898 z"
         id="path5"
         inkscape:label="path5" />
      <path
         style="display:inline;stroke-width:1.20578;fill:#4287ff;fill-opacity:1"
         d="m 214.33838,83.548161 c 14.44191,0.0399 30.77441,3.228306 44.02493,9.144586 20.1251,8.980673 37.96533,24.776193 44.59719,39.465593 8.51121,18.85331 1.42284,39.88648 -16.81021,49.92661 -12.08516,6.6477 -35.57114,10.11707 -50.41175,7.45131 h 0.0157 v -0.002 c -32.08982,-5.76982 -60.93708,-25.66873 -70.25053,-48.42882 -4.4677,-10.93382 -4.25631,-25.19792 0.51339,-33.73815 4.31649,-7.72341 15.46103,-16.658226 25.44138,-20.399262 6.22959,-2.333815 14.21397,-3.443417 22.87911,-3.419506 z"
         id="path4" />
      <path
         style="display:inline;stroke-width:1.20578;fill:#4287ff;fill-opacity:1"
         d="m 154.4918,1.0762686 c 38.11794,0.075008 81.66169,8.1600954 127.48246,24.4452064 18.38382,6.54174 25.68304,11.084799 22.30683,13.915863 -2.49826,2.089859 -19.43131,2.059088 -48.68788,-0.09189 -45.73427,-3.361665 -80.54691,2.998533 -98.49202,18.02068 -27.31968,22.866486 -23.1555,72.993712 12.08364,145.302962 3.81665,7.82937 7.66249,15.49071 8.54169,17.05042 2.04506,3.58849 0.56154,6.92127 -2.99794,6.75421 -1.5162,-0.0726 -35.65014,-4.38609 -75.8555,-9.59673 C 58.666398,211.66811 24.926804,207.13732 23.881879,206.80452 22.095788,206.22909 15.704405,184.90841 12.099669,167.55326 11.19143,163.16116 9.85899,151.53027 9.132331,141.68797 5.889821,97.77058 15.444979,67.409567 41.052402,40.106132 65.440394,14.125709 105.48304,0.9798425 154.4918,1.0762686 Z"
         id="path3" />
    </g>
  </g>
</svg>
