<?xml version="1.0" encoding="UTF-8" standalone="no"?>
<!-- Created with Inkscape (http://www.inkscape.org/) -->

<svg
   width="536.383"
   height="536.383"
   viewBox="0 0 141.918 141.918"
   version="1.1"
   id="svg1"
   xml:space="preserve"
   inkscape:version="1.4.2 (f4327f4, 2025-05-13)"
   sodipodi:docname="linkedin-logo.svg"
   xmlns:inkscape="http://www.inkscape.org/namespaces/inkscape"
   xmlns:sodipodi="http://sodipodi.sourceforge.net/DTD/sodipodi-0.dtd"
   xmlns="http://www.w3.org/2000/svg"
   xmlns:svg="http://www.w3.org/2000/svg"><sodipodi:namedview
     id="namedview1"
     pagecolor="#ffffff"
     bordercolor="#000000"
     borderopacity="0.25"
     inkscape:showpageshadow="2"
     inkscape:pageopacity="0.0"
     inkscape:pagecheckerboard="0"
     inkscape:deskcolor="#d1d1d1"
     inkscape:document-units="px"
     inkscape:zoom="1.4411344"
     inkscape:cx="267.84455"
     inkscape:cy="268.19149"
     inkscape:current-layer="layer1" /><defs
     id="defs1" /><g
     inkscape:label="Camada 1"
     inkscape:groupmode="layer"
     id="layer1"><g
       id="g4"
       inkscape:label="Linked in"
       transform="translate(-31.564777,-79.330917)"><rect
         style="fill:#2867b2;fill-opacity:1;fill-rule:evenodd;stroke:none;stroke-width:0.876493;stroke-linecap:round;stroke-opacity:0.226087"
         id="rect1"
         width="141.91809"
         height="141.918"
         x="31.564777"
         y="79.330917"
         rx="9.677474"
         ry="9.677474"
         inkscape:label="blue square" /><g
         id="g3"
         inkscape:label="i"><circle
           style="fill:#ffffff;fill-opacity:1;fill-rule:evenodd;stroke:none;stroke-width:1.33976;stroke-linecap:round;stroke-opacity:0.226087"
           id="path1"
           cx="63.32848"
           cy="110.99641"
           r="12.15" /><rect
           style="fill:#ffffff;fill-opacity:1;fill-rule:evenodd;stroke:none;stroke-width:0.851109;stroke-linecap:round;stroke-opacity:0.226087"
           id="rect2"
           width="21.317348"
           height="67.884506"
           x="52.62154"
           y="132.39438" /></g><path
         d="m 152.88065,200.23014 -21.29931,-0.27168 -0.24014,-35.03347 c -0.0401,-5.85693 -0.30672,-8.8366 -3.13405,-12.56737 -1.30112,-1.71688 -3.35573,-2.84262 -6.94537,-3.01476 -2.83954,-0.13616 -4.8035,-0.29289 -8.80075,2.29769 -3.33316,3.9504 -4.32053,6.71074 -4.32053,13.1713 v 35.1466 l -21.373196,0.13584 0.135841,-67.91184 20.558375,0.40752 0.13584,9.03573 c 5.06147,-8.80611 13.12438,-10.97595 18.54872,-10.90811 4.9374,0.0617 10.6201,0.37522 14.35122,2.56329 3.6282,2.09854 6.06158,3.83474 7.54309,7.27093 2.65742,3.09177 4.33055,11.70382 4.43273,21.32156 z"
         id="text3"
         style="font-size:126.413px;line-height:1;font-family:'Franklin Gothic Book';-inkscape-font-specification:'Franklin Gothic Book, Normal';text-align:center;letter-spacing:-2.95183px;word-spacing:0.491971px;text-anchor:middle;fill:#ffffff;fill-opacity:1;fill-rule:evenodd;stroke-width:1.47591;stroke-linecap:round;stroke-opacity:0.226087"
         aria-label="n"
         sodipodi:nodetypes="ccssscscccccsccsc"
         inkscape:label="n" /></g></g></svg>
