<?xml version="1.0" encoding="UTF-8" standalone="no"?>
<!-- Uploaded to: SVG Repo, www.svgrepo.com, Generator: SVG Repo Mixer Tools -->

<svg
   fill="#000000"
   version="1.1"
   id="Layer_1"
   viewBox="0 0 512 512"
   xml:space="preserve"
   sodipodi:docname="notebook-logo.svg"
   inkscape:version="1.4.2 (f4327f4, 2025-05-13)"
   xmlns:inkscape="http://www.inkscape.org/namespaces/inkscape"
   xmlns:sodipodi="http://sodipodi.sourceforge.net/DTD/sodipodi-0.dtd"
   xmlns="http://www.w3.org/2000/svg"
   xmlns:svg="http://www.w3.org/2000/svg"><defs
   id="defs56" /><sodipodi:namedview
   id="namedview56"
   pagecolor="#ffffff"
   bordercolor="#000000"
   borderopacity="0.25"
   inkscape:showpageshadow="2"
   inkscape:pageopacity="0.0"
   inkscape:pagecheckerboard="0"
   inkscape:deskcolor="#d1d1d1"
   inkscape:zoom="1.5097656"
   inkscape:cx="255.66882"
   inkscape:cy="256"
   inkscape:current-layer="Layer_1" />
<g
   id="g2"
   style="fill:#040b14;fill-opacity:1">
	<g
   id="g1"
   style="fill:#040b14;fill-opacity:1">
		<rect
   x="136.226"
   y="92.54"
   width="15.658"
   height="15.658"
   id="rect1"
   style="fill:#040b14;fill-opacity:1" />
	</g>
</g>
<g
   id="g4"
   style="fill:#040b14;fill-opacity:1">
	<g
   id="g3"
   style="fill:#040b14;fill-opacity:1">
		<path
   d="M263.916,156.073v32.5h-16.179v-32.327H0v303.756h247.737v-31.338h16.179v31.512H512V156.073H263.916z M232.079,188.573    h-16.518v15.658h16.518v16.702h-16.518v15.658h16.518v15.658h-16.518v15.658h16.518v17.746h-16.518v15.658h16.518v15.658h-16.518    v15.658h16.518v15.658h-16.518v15.658h16.518v16.702h-16.518v15.658h16.518v16.702h-16.518v15.658h16.518v15.68H15.658V171.904    h216.421V188.573z M263.916,413.006h-16.179v-16.702h16.179V413.006z M263.916,380.646h-16.179v-16.702h16.179V380.646z     M263.916,348.286h-16.179v-15.658h16.179V348.286z M263.916,316.97h-16.179v-15.658h16.179V316.97z M263.916,285.653h-16.179    v-17.746h16.179V285.653z M263.916,252.249h-16.179v-15.658h16.179V252.249z M263.916,220.933h-16.179v-16.702h16.179V220.933z     M495.995,444.17H279.921v-15.506h16.018v-15.658h-16.018v-16.702h16.018v-15.658h-16.018v-16.702h16.018v-15.658h-16.018v-15.658    h16.018V316.97h-16.018v-15.658h16.018v-15.658h-16.018v-17.746h16.018v-15.658h-16.018v-15.658h16.018v-15.658h-16.018v-16.702    h16.018v-15.658h-16.018v-16.494h216.074V444.17z"
   id="path2"
   style="fill:#040b14;fill-opacity:1" />
	</g>
</g>
<g
   id="g6"
   style="fill:#040b14;fill-opacity:1">
	<g
   id="g5"
   style="fill:#040b14;fill-opacity:1">
		<rect
   x="319.948"
   y="188.577"
   width="16.702"
   height="15.658"
   id="rect4"
   style="fill:#040b14;fill-opacity:1" />
	</g>
</g>
<g
   id="g8"
   style="fill:#040b14;fill-opacity:1">
	<g
   id="g7"
   style="fill:#040b14;fill-opacity:1">
		<path
   d="M375.274,261.644v24.009h-24.009v63.677h39.667v-16.702h8.351v48.018h80.379V261.644H375.274z M464.004,364.988h-49.062    V316.97h-39.667v16.702h-8.351v-32.36h24.009v-24.009h73.071V364.988z"
   id="path6"
   style="fill:#040b14;fill-opacity:1" />
	</g>
</g>
<g
   id="g10"
   style="fill:#040b14;fill-opacity:1">
	<g
   id="g9"
   style="fill:#040b14;fill-opacity:1">
		<rect
   x="351.265"
   y="356.641"
   width="40.711"
   height="15.658"
   id="rect8"
   style="fill:#040b14;fill-opacity:1" />
	</g>
</g>
<g
   id="g12"
   style="fill:#040b14;fill-opacity:1">
	<g
   id="g11"
   style="fill:#040b14;fill-opacity:1">
		<rect
   x="399.283"
   y="389.001"
   width="80.379"
   height="15.658"
   id="rect10"
   style="fill:#040b14;fill-opacity:1" />
	</g>
</g>
<g
   id="g14"
   style="fill:#040b14;fill-opacity:1">
	<g
   id="g13"
   style="fill:#040b14;fill-opacity:1">
		<rect
   x="367.967"
   y="379.607"
   width="16.702"
   height="16.702"
   id="rect12"
   style="fill:#040b14;fill-opacity:1" />
	</g>
</g>
<g
   id="g16"
   style="fill:#040b14;fill-opacity:1">
	<g
   id="g15"
   style="fill:#040b14;fill-opacity:1">
		<rect
   x="448.345"
   y="411.967"
   width="15.658"
   height="16.702"
   id="rect14"
   style="fill:#040b14;fill-opacity:1" />
	</g>
</g>
<g
   id="g18"
   style="fill:#040b14;fill-opacity:1">
	<g
   id="g17"
   style="fill:#040b14;fill-opacity:1">
		<rect
   x="375.274"
   y="236.595"
   width="104.388"
   height="15.658"
   id="rect16"
   style="fill:#040b14;fill-opacity:1" />
	</g>
</g>
<g
   id="g20"
   style="fill:#040b14;fill-opacity:1">
	<g
   id="g19"
   style="fill:#040b14;fill-opacity:1">
		<rect
   x="327.256"
   y="284.614"
   width="15.658"
   height="63.677"
   id="rect18"
   style="fill:#040b14;fill-opacity:1" />
	</g>
</g>
<g
   id="g22"
   style="fill:#040b14;fill-opacity:1">
	<g
   id="g21"
   style="fill:#040b14;fill-opacity:1">
		<rect
   x="303.246"
   y="324.281"
   width="16.702"
   height="15.658"
   id="rect20"
   style="fill:#040b14;fill-opacity:1" />
	</g>
</g>
<g
   id="g24"
   style="fill:#040b14;fill-opacity:1">
	<g
   id="g23"
   style="fill:#040b14;fill-opacity:1">
		<rect
   x="448.345"
   y="211.542"
   width="15.658"
   height="16.702"
   id="rect22"
   style="fill:#040b14;fill-opacity:1" />
	</g>
</g>
<g
   id="g26"
   style="fill:#040b14;fill-opacity:1">
	<g
   id="g25"
   style="fill:#040b14;fill-opacity:1">
		<rect
   x="319.948"
   y="212.586"
   width="40.711"
   height="15.658"
   id="rect24"
   style="fill:#040b14;fill-opacity:1" />
	</g>
</g>
<g
   id="g28"
   style="fill:#040b14;fill-opacity:1">
	<g
   id="g27"
   style="fill:#040b14;fill-opacity:1">
		<rect
   x="48.54"
   y="196.928"
   width="46.974"
   height="15.658"
   id="rect26"
   style="fill:#040b14;fill-opacity:1" />
	</g>
</g>
<g
   id="g30"
   style="fill:#040b14;fill-opacity:1">
	<g
   id="g29"
   style="fill:#040b14;fill-opacity:1">
		<rect
   x="48.54"
   y="252.254"
   width="14.614"
   height="15.658"
   id="rect28"
   style="fill:#040b14;fill-opacity:1" />
	</g>
</g>
<g
   id="g32"
   style="fill:#040b14;fill-opacity:1">
	<g
   id="g31"
   style="fill:#040b14;fill-opacity:1">
		<rect
   x="79.857"
   y="252.254"
   width="104.388"
   height="15.658"
   id="rect30"
   style="fill:#040b14;fill-opacity:1" />
	</g>
</g>
<g
   id="g34"
   style="fill:#040b14;fill-opacity:1">
	<g
   id="g33"
   style="fill:#040b14;fill-opacity:1">
		<rect
   x="79.857"
   y="276.263"
   width="104.388"
   height="15.658"
   id="rect32"
   style="fill:#040b14;fill-opacity:1" />
	</g>
</g>
<g
   id="g36"
   style="fill:#040b14;fill-opacity:1">
	<g
   id="g35"
   style="fill:#040b14;fill-opacity:1">
		<rect
   x="48.54"
   y="316.974"
   width="14.614"
   height="15.658"
   id="rect34"
   style="fill:#040b14;fill-opacity:1" />
	</g>
</g>
<g
   id="g38"
   style="fill:#040b14;fill-opacity:1">
	<g
   id="g37"
   style="fill:#040b14;fill-opacity:1">
		<rect
   x="79.857"
   y="316.974"
   width="104.388"
   height="15.658"
   id="rect36"
   style="fill:#040b14;fill-opacity:1" />
	</g>
</g>
<g
   id="g40"
   style="fill:#040b14;fill-opacity:1">
	<g
   id="g39"
   style="fill:#040b14;fill-opacity:1">
		<rect
   x="79.857"
   y="340.983"
   width="104.388"
   height="15.658"
   id="rect38"
   style="fill:#040b14;fill-opacity:1" />
	</g>
</g>
<g
   id="g42"
   style="fill:#040b14;fill-opacity:1">
	<g
   id="g41"
   style="fill:#040b14;fill-opacity:1">
		<rect
   x="48.54"
   y="380.65"
   width="14.614"
   height="15.658"
   id="rect40"
   style="fill:#040b14;fill-opacity:1" />
	</g>
</g>
<g
   id="g44"
   style="fill:#040b14;fill-opacity:1">
	<g
   id="g43"
   style="fill:#040b14;fill-opacity:1">
		<rect
   x="79.857"
   y="380.65"
   width="104.388"
   height="15.658"
   id="rect42"
   style="fill:#040b14;fill-opacity:1" />
	</g>
</g>
<g
   id="g46"
   style="fill:#040b14;fill-opacity:1">
	<g
   id="g45"
   style="fill:#040b14;fill-opacity:1">
		<rect
   x="79.857"
   y="404.66"
   width="104.388"
   height="15.658"
   id="rect44"
   style="fill:#040b14;fill-opacity:1" />
	</g>
</g>
<g
   id="g48"
   style="fill:#040b14;fill-opacity:1">
	<g
   id="g47"
   style="fill:#040b14;fill-opacity:1">
		<rect
   x="48.54"
   y="219.893"
   width="87.686"
   height="16.702"
   id="rect46"
   style="fill:#040b14;fill-opacity:1" />
	</g>
</g>
<g
   id="g50"
   style="fill:#040b14;fill-opacity:1">
	<g
   id="g49"
   style="fill:#040b14;fill-opacity:1">
		<polygon
   points="215.561,91.492 215.561,74.79 184.244,74.79 184.244,91.492 160.235,91.492 160.235,108.194 184.244,108.194     184.244,124.896 215.561,124.896 215.561,108.194 200.946,108.194 200.946,91.492   "
   id="polygon48"
   style="fill:#040b14;fill-opacity:1" />
	</g>
</g>
<g
   id="g52"
   style="fill:#040b14;fill-opacity:1">
	<g
   id="g51"
   style="fill:#040b14;fill-opacity:1">
		<rect
   x="222.868"
   y="76.882"
   width="16.702"
   height="48.018"
   id="rect50"
   style="fill:#040b14;fill-opacity:1" />
	</g>
</g>
<g
   id="g54"
   style="fill:#040b14;fill-opacity:1">
	<g
   id="g53"
   style="fill:#040b14;fill-opacity:1">
		<polygon
   points="295.939,51.825 295.939,68.527 351.265,68.527 351.265,74.79 247.921,74.79 247.921,91.492 351.265,91.492     351.265,108.194 247.921,108.194 247.921,124.896 351.265,124.896 351.265,132.203 367.967,132.203 367.967,51.825   "
   id="polygon52"
   style="fill:#040b14;fill-opacity:1" />
	</g>
</g>
<g
   id="g56"
   style="fill:#040b14;fill-opacity:1">
	<g
   id="g55"
   style="fill:#040b14;fill-opacity:1">
		<polygon
   points="391.976,92.536 391.976,84.185 375.274,84.185 375.274,115.501 391.976,115.501 391.976,108.194 408.678,108.194     408.678,92.536   "
   id="polygon54"
   style="fill:#040b14;fill-opacity:1" />
	</g>
</g>
</svg>
