<?xml version="1.0" encoding="UTF-8" standalone="no"?>
<!-- Uploaded to: SVG Repo, www.svgrepo.com, Generator: SVG Repo Mixer Tools -->

<svg
   width="800px"
   height="800px"
   viewBox="-1.67 0 361.964 361.964"
   version="1.1"
   id="svg46"
   sodipodi:docname="teatcher-logo.svg"
   inkscape:version="1.4.2 (f4327f4, 2025-05-13)"
   xmlns:inkscape="http://www.inkscape.org/namespaces/inkscape"
   xmlns:sodipodi="http://sodipodi.sourceforge.net/DTD/sodipodi-0.dtd"
   xmlns="http://www.w3.org/2000/svg"
   xmlns:svg="http://www.w3.org/2000/svg">
  <sodipodi:namedview
     id="namedview46"
     pagecolor="#ffffff"
     bordercolor="#000000"
     borderopacity="0.25"
     inkscape:showpageshadow="2"
     inkscape:pageopacity="0.0"
     inkscape:pagecheckerboard="0"
     inkscape:deskcolor="#d1d1d1"
     inkscape:zoom="0.68324193"
     inkscape:cx="436.1559"
     inkscape:cy="360.77997"
     inkscape:current-layer="svg46" />
  <defs
     id="defs1">
    <style
       id="style1">.a{fill:#bdbdbd;}.b{fill:#ffffff;}.c{fill:#211715;}.d{fill:#7a7473;}.e{fill:#6dbf6b;}</style>
  </defs>
  <g
     id="g46"
     inkscape:label="Bonequinho"
     transform="matrix(0.97693704,0,0,0.97693704,3.6733168,4.174076)">
    <path
       class="a"
       d="m 213.30891,355.534 c 0,-14.259 -0.12981,-23.925 -0.11809,-33.744 6.21199,11 15.64367,23.144 25.36424,30.385 6.88443,5.128 12.94319,8.1 20.80944,7.238 13.57366,-1.484 25.64044,-24.16 33.42275,-38.848 4.01413,-7.576 16.63721,-39.7 18.88875,-47.543 -13.97966,-2.734 -28.2404,-10.527 -39.70794,-19.585 -3.45686,7.9 -7.35875,16.395 -11.86671,25.8 -1.9324,-4.209 -3.33681,-7.268 -4.45917,-10.147 -2.3911,-5.76 -3.52321,-9.36 -5.24091,-13.9 -1.06379,-2.8 -6.26566,-17.48 -6.9098,-17.96 a 27.209788,27.88 0 0 0 -2.31303,-3.97 c -4.39182,-7.43 -11.20403,-13.11 -18.49445,-17.53 -11.15231,-6.768 -31.99102,-17.285 -42.61241,-24.655 -2.76294,-3.139 -5.12867,-5.318 -6.33496,-5.46 a 328.06143,336.142 0 0 1 -8.4079,37.122 c -6.96738,23.962 -17.04711,53.059 -24.63032,71.75 l -0.65683,-1.62 c -6.43353,-14.233 -18.38612,-42.807 -27.10731,-68.411 -5.41463,-15.894 -8.99836,-31.844 -11.02836,-38.843 -1.19945,0.062 -3.655945,2.325 -6.52527,5.6 -12.708962,8.5 -34.387004,20.981 -42.561652,25.139 -6.948842,3.54 -13.604895,8.33 -17.996718,15.76 a 64.467094,66.055 0 0 0 -4.899324,11.26 c -11.304554,31 -15.689546,80.718 -19.9486394,116.193 5.7230344,0 203.3219234,0 203.3219234,0 0.01,-1.36 0,-2.7 0,-4.03 q -0.006,-2.877 -0.0176,-5.676"
       id="path1"
       style="stroke-width:0.987907" />
    <path
       class="b"
       d="m 170.105,190.457 c -0.808,-0.363 -3.826,-1.544 -4.179,-1.675 -5.421,-1.959 -5.209,-5.452 -5.9,-9.348 a 77.252,77.252 0 0 1 -1.09,-9.4 c 14.869,-6.067 26.878,-26.138 28.955,-31.777 0.311,-0.942 0.943,-2.717 1.506,-4.823 l 1.174,-0.182 a 14.741,14.741 0 0 0 6.859,-3.092 22.241,22.241 0 0 0 5.753,-7.55 35.005,35.005 0 0 0 3.569,-18.554 11.68,11.68 0 0 0 -1.223,-4.7 8.261,8.261 0 0 0 -5.94,-3.949 8.751,8.751 0 0 0 -7,2.048 c 0,0 2,-48.03 -57.764,-48.03 -50,0 -59.036,33.4 -59.627,44.549 a 32.33,32.33 0 0 0 -0.028,3.481 8.751,8.751 0 0 0 -7,-2.048 8.261,8.261 0 0 0 -5.94,3.949 11.68,11.68 0 0 0 -1.223,4.7 35.005,35.005 0 0 0 3.569,18.554 22.254,22.254 0 0 0 5.753,7.55 14.741,14.741 0 0 0 6.859,3.092 c 0,0 0.845,0.13 2.235,0.341 a 59.524,59.524 0 0 0 11.347,22.142 c 5.282,6.322 11.2,11.122 17.651,14.047 a 75.181,75.181 0 0 1 -1.1,9.652 c -0.686,3.9 -0.474,7.389 -5.895,9.348 -0.354,0.131 -2.605,1.07 -3.271,1.352 0,0 -1.3,23.279 33.815,23.279 35.115,0 38.135,-22.956 38.135,-22.956 z"
       id="path2" />
    <path
       class="b"
       d="m 331.53149,236.115 c 0,0 -1.32176,0.48 -3.19588,1.164 a 15.755839,17.058 0 0 0 4.97947,-3.983 5.4837857,5.937 0 0 0 0.52833,-7.249 c -1.43167,-2.162 -3.91171,-3.661 -6.18854,-2.5 l -0.55419,0.282 1.99234,-3.054 c 0.80266,-1.229 0.53572,-4.906 -0.68351,-6.718 -1.48433,-2.2 -4.70329,-3.606 -6.7021,-2.4 l -22.3591,-7.165 c -1.41506,-3.007 -4.5943,-5.331 -7.60175,-4.44 a 6.0038078,6.5 0 0 0 -3.56257,3.129 17.641958,19.1 0 0 0 -1.9794,7.184 91.573771,99.142 0 0 1 -3.91818,19.241 c -1.63211,5.564 -1.37995,11.723 -2.65369,17.4 -0.59668,2.662 -2.19185,5.755 -5.29351,9.011 a 97.954433,106.05 0 0 0 26.72896,14.895 c 0.68166,-0.806 1.12871,-1.331 1.12871,-1.331 1.21185,-1.425 2.07917,-3.7 3.68264,-4.738 5.86896,-3.8 12.73177,-9.89 18.70325,-12.84 a 7.0456993,7.628 0 0 0 2.25189,-0.045 19.278689,20.872 0 0 0 6.25782,-3.018 c 2.3461,-1.566 4.81413,-3.565 5.36186,-6.372 0.71491,-3.659 -3.52932,-7.685 -6.92285,-6.453 z"
       id="path3"
       style="stroke-width:0.961074" />
    <path
       class="a"
       d="m 302.35914,229.948 c -2.17892,5.486 -6.24765,5.594 -7.62761,4.975 a 5.3396943,5.781 0 0 1 -2.44401,-7.134 c 11.5384,-35.071 44.49284,-142.376 45.84877,-145.667 1.26727,-3.079 4.83907,-5.216 7.30987,-4.235 3.09519,1.23 3.88493,5.908 3.39354,8.234 -2.09856,9.948 -46.35309,143.51 -46.48056,143.827 z"
       id="path4"
       style="fill:#494b4b;fill-opacity:1;stroke-width:0.961074" />
    <path
       class="c"
       d="m 323.46237,249.926 c -4.42712,2.223 -8.41272,5.372 -12.4131,8.363 -1.9711,1.473 -3.9542,2.924 -5.99273,4.287 -2.03852,1.363 -2.91046,3.44 -4.42527,5.3 -1.8778,2.312 1.24602,5.72 3.13491,3.395 1.31438,-1.619 2.0958,-3.6 3.82397,-4.75 2.05145,-1.364 4.03363,-2.847 6.01304,-4.329 3.89509,-2.914 7.78556,-5.96 12.09998,-8.125 a 2.2352638,2.42 0 0 0 0.79528,-3.284 2.267592,2.455 0 0 0 -3.03239,-0.861 z"
       id="path5"
       style="fill:#000000;fill-opacity:1;stroke-width:0.961074" />
    <path
       class="c"
       d="m 301.36374,228.737 a 8.0848199,8.753 0 0 1 -1.62011,2.746 4.9360537,5.344 0 0 1 -1.47786,1.05 5.7313273,6.205 0 0 1 -0.97816,0.261 c 0.53758,-0.085 -0.33806,-0.023 -0.46183,-0.021 -0.64194,0.012 0.2771,0.13 -0.26139,-0.047 -0.0748,-0.025 -0.15056,-0.053 -0.2263,-0.076 0.60315,0.184 0.0794,0.059 -0.061,-0.089 0.31866,0.335 -0.24477,-0.246 -0.24385,-0.245 a 3.612445,3.911 0 0 1 -0.33806,-0.4 4.8760156,5.279 0 0 1 -0.39533,-0.785 3.6761777,3.98 0 0 1 0.11915,-2.934 c 0.35284,-1.106 0.72231,-2.206 1.08161,-3.31 q 2.68879,-8.264 5.31106,-16.554 6.76676,-21.3 13.40697,-42.639 6.89791,-22.08 13.76257,-44.172 c 3.28362,-10.545 6.55801,-21.095 9.88319,-31.623 0.71215,-2.249 1.42799,-4.5 2.17246,-6.732 0.0314,-0.093 0.0748,-0.185 0.10068,-0.28 0.0776,-0.29 -0.11823,0.513 -0.17919,0.458 -0.0804,-0.073 0.5542,-1.089 0.66596,-1.239 0.94491,-1.3 2.83841,-2.519 4.14355,-1.9 1.11671,0.529 1.71524,2.392 1.84733,3.484 a 7.9130186,8.567 0 0 1 0.0554,1.31 4.1897342,4.536 0 0 1 -0.0314,0.478 c 0.0508,-0.42 0,-0.086 -0.0259,0.044 -0.0259,0.13 -0.0619,0.274 -0.0924,0.411 -1.47786,6.258 -3.6577,12.386 -5.58631,18.491 q -5.34801,16.933 -10.8632,33.8 -6.28737,19.359 -12.64217,38.693 -5.52258,16.824 -11.07564,33.636 -2.95572,8.952 -5.92437,17.9 c -0.0924,0.285 -0.18473,0.576 -0.28634,0.856 a 2.2324928,2.417 0 0 0 1.54806,2.953 2.2722103,2.46 0 0 0 2.72665,-1.677 c 1.63581,-4.354 2.94926,-8.886 4.41234,-13.31 q 5.30367,-16.046 10.58148,-32.1 6.52106,-19.839 12.99132,-39.7 5.86895,-18.032 11.63815,-36.1 c 2.24542,-7.066 4.61831,-14.126 6.53122,-21.309 a 11.142144,12.063 0 0 0 0.33621,-5.574 c -0.78973,-4.859 -4.79011,-8.577 -9.40843,-6.742 a 9.716932,10.52 0 0 0 -5.77,6.25 c -0.3122,0.9 -0.59853,1.809 -0.89041,2.716 -2.98066,9.273 -5.8514,18.588 -8.74986,27.891 q -6.8702,22.047 -13.73671,44.1 -7.03646,22.554 -14.14312,45.081 -2.87721,9.092 -5.79783,18.168 c -0.77403,2.4 -1.61272,4.784 -2.34334,7.2 -1.30421,4.311 0.9329,9.961 5.44961,10.4 3.9071,0.377 7.16024,-2.737 8.67412,-6.387 a 2.2860653,2.475 0 0 0 -0.79527,-3.284 2.2343402,2.419 0 0 0 -3.03331,0.852 z"
       id="path6"
       style="fill:#000000;fill-opacity:1;stroke-width:0.961074" />
    <path
       class="c"
       d="m 318.64916,240.729 a 7.7975608,8.442 0 0 0 -0.84884,9.738 c 1.87041,3.22 6.21255,4.458 9.49987,3.826 a 17.767576,19.236 0 0 0 5.49579,-2.371 28.603064,30.967 0 0 0 4.60908,-3.4 c 2.69802,-2.514 4.23222,-6.265 2.6389,-9.948 -1.53143,-3.54 -5.55121,-5.941 -9.10177,-4.774 -2.72296,0.894 -1.56191,5.529 1.17859,4.628 0.0924,-0.032 0.63179,-0.171 0.29188,-0.118 a 3.5413229,3.834 0 0 1 0.78511,0 c 0.26602,0.023 0.0148,0.007 -0.0295,0 0.11084,0.024 0.22352,0.05 0.33252,0.085 0.10899,0.035 0.22075,0.068 0.32974,0.107 0.6558,0.234 -0.13485,-0.093 0.21891,0.1 0.2106,0.113 0.41195,0.241 0.61147,0.376 a 1.3799521,1.494 0 0 1 0.39348,0.321 3.7703913,4.082 0 0 1 0.78326,0.952 4.5906038,4.97 0 0 1 0.37778,0.756 c -0.11453,-0.313 0.0388,0.245 0.0656,0.335 a 1.6136388,1.747 0 0 1 -0.0231,0.873 5.5419764,6 0 0 1 -1.67645,2.623 17.457226,18.9 0 0 1 -2.74605,2.13 21.075213,22.817 0 0 1 -3.71128,2.106 6.2919905,6.812 0 0 1 -3.38337,0.553 6.7011731,7.255 0 0 1 -2.6934,-1.154 c -0.0157,-0.012 -0.52926,-0.557 -0.41842,-0.4 0.097,0.136 -0.19305,-0.371 -0.2457,-0.5 0.13671,0.344 -0.0804,-0.389 -0.11361,-0.541 0,-0.006 -0.0656,-0.4 -0.0342,-0.165 0.0268,0.2 -0.0148,-0.256 -0.0157,-0.3 a 6.6402114,7.189 0 0 1 0.0231,-1.006 c 0.0295,-0.29 0.0102,-0.033 0,0.018 0.0277,-0.162 0.0619,-0.323 0.1016,-0.482 0.0296,-0.117 0.0637,-0.233 0.0998,-0.349 0.11545,-0.375 -0.23,0.408 0.0776,-0.189 0.0517,-0.1 0.10438,-0.2 0.16164,-0.3 0.1912,-0.326 -0.31774,0.36 0.10068,-0.124 1.94616,-2.256 -1.18321,-5.657 -3.14045,-3.394 z"
       id="path7"
       style="fill:#000000;fill-opacity:1;stroke-width:0.961074" />
    <path
       class="c"
       d="m 328.24325,225.863 c 2.09394,-0.956 4.51301,1.295 4.27933,3.7 -0.2771,2.815 -3.37876,4.627 -5.45977,5.731 -1.80115,0.955 -3.59582,1.929 -5.40158,2.873 a 25.467229,27.572 0 0 1 -2.8495,1.341 11.094113,12.011 0 0 1 -1.0733,0.33 c -0.25585,0.066 0.23923,-0.034 0.23831,-0.035 -0.13578,0 -0.27064,0.02 -0.40734,0.009 a 5.4496101,5.9 0 0 1 -0.85254,-0.109 3.987452,4.317 0 0 1 -2.76545,-1.923 5.7747394,6.252 0 0 1 -0.6715,-1.785 3.4554223,3.741 0 0 0 -0.0813,-0.5 c 0.0545,-0.358 -0.0536,-0.1 0.21798,-0.364 2.12997,-2.065 -1.01603,-5.45 -3.13491,-3.394 -3.14692,3.052 -0.82298,8.913 2.0921,11.116 a 9.4583064,10.24 0 0 0 5.33415,1.76 10.962953,11.869 0 0 0 4.12785,-1.279 c 2.53268,-1.18 4.98778,-2.581 7.46412,-3.9 3.71312,-1.974 7.63592,-5.324 7.6664,-10.211 0.0333,-5.091 -5.23625,-10.12 -9.90259,-7.989 a 2.2925309,2.482 0 0 0 -1.54806,2.952 2.2297218,2.414 0 0 0 2.72665,1.676 z"
       id="path8"
       style="fill:#000000;fill-opacity:1;stroke-width:0.961074" />
    <path
       class="c"
       d="m 316.85449,233.049 c 4.89541,-2.567 9.95154,-5.214 13.38387,-9.949 a 7.588813,8.216 0 0 0 1.18691,-7.508 8.1633312,8.838 0 0 0 -4.62571,-5.9 8.0635757,8.73 0 0 0 -3.54594,-0.872 9.166429,9.924 0 0 0 -4.14447,1.651 c -2.58626,1.527 -5.21962,2.991 -7.6895,4.742 -4.16202,2.951 -8.43119,7.545 -6.51274,13.4 0.95784,2.921 3.00283,5.507 5.98071,5.845 a 11.516227,12.468 0 0 0 5.96687,-1.405 2.2361875,2.421 0 0 0 0.79527,-3.284 2.264821,2.452 0 0 0 -3.03239,-0.861 c -0.0711,0.037 -0.44428,0.2 -0.11084,0.058 0.33345,-0.142 -0.46183,0.182 -0.58098,0.226 a 8.8311394,9.561 0 0 1 -1.94523,0.5 2.2685157,2.456 0 0 1 -1.40397,-0.253 4.5176344,4.891 0 0 1 -1.33839,-1.949 3.4711246,3.758 0 0 1 0.41657,-4.2 12.469447,13.5 0 0 1 3.84521,-3.816 c 1.95263,-1.4 4.01055,-2.609 6.06847,-3.812 1.02249,-0.6 2.03205,-1.259 3.07395,-1.813 a 2.1687601,2.348 0 0 1 1.73648,-0.051 3.9320323,4.257 0 0 1 2.77099,3.076 5.8975866,6.385 0 0 1 0.16626,2.257 c 0,-0.043 -0.2226,0.643 -0.0416,0.282 a 6.4739521,7.009 0 0 1 -0.8433,1.189 c -3.14045,3.914 -7.58881,6.091 -11.81365,8.308 a 2.2380348,2.423 0 0 0 -0.79527,3.284 2.2629737,2.45 0 0 0 3.03239,0.855 z"
       id="path9"
       style="fill:#000000;fill-opacity:1;stroke-width:0.961074" />
    <path
       class="b"
       d="m 316.08415,213.073 c 1.76881,-0.817 5.41728,-3.193 6.25966,-5.247 a 5.718396,6.191 0 0 0 0.3473,-4.475 c -0.76572,-2.221 -1.72448,-3.958 -3.77686,-4.787 a 6.2809066,6.8 0 0 0 -4.34121,0.269 17.107158,18.521 0 0 0 -6.02321,4.4 c -1.76419,2.253 -2.49389,5.741 -0.95599,8.179 1.42891,2.26 4.35969,2.91 6.81848,2.267 a 10.585175,11.46 0 0 0 1.67183,-0.606 z"
       id="path10"
       style="stroke-width:0.961074" />
    <path
       class="c"
       d="m 317.20271,215.145 a 19.565024,21.182 0 0 0 3.90432,-2.5 9.541436,10.33 0 0 0 3.4702,-4.427 8.3286669,9.017 0 0 0 0.57914,-3.3 8.5475749,9.254 0 0 0 -0.92367,-3.776 8.1901175,8.867 0 0 0 -3.59582,-4.365 c -4.02809,-2.225 -8.52448,0.159 -11.79055,2.894 -3.14045,2.628 -5.39142,7.258 -3.80919,11.553 1.84086,5 7.43087,6.049 11.63815,4.162 a 2.2888363,2.478 0 0 0 1.54806,-2.952 2.2297218,2.414 0 0 0 -2.72665,-1.676 12.016852,13.01 0 0 1 -2.08378,0.7 c -0.64657,0.152 0.24477,-0.01 -0.15056,0.022 -0.17734,0.014 -0.35561,0.027 -0.53388,0.031 -0.14316,0 -0.28633,0 -0.42858,0 -0.0305,0 -0.71768,-0.063 -0.26139,0 a 6.2393418,6.755 0 0 1 -1.03081,-0.254 c -0.13301,-0.045 -0.26601,-0.095 -0.39533,-0.149 0.34453,0.145 0.0231,0.007 -0.0397,-0.032 -0.14871,-0.095 -0.30204,-0.178 -0.44706,-0.278 -0.0924,-0.06 -0.42304,-0.359 -0.13023,-0.085 -0.10345,-0.1 -0.20506,-0.2 -0.30112,-0.3 -0.0388,-0.042 -0.39625,-0.558 -0.18473,-0.209 a 3.2512928,3.52 0 0 1 -0.37501,-3.132 4.1749556,4.52 0 0 1 0.67612,-1.648 c 0.0785,-0.137 0.16164,-0.272 0.24755,-0.4 -0.19767,0.305 0.0924,-0.127 0.14409,-0.189 a 10.333015,11.187 0 0 1 0.97446,-1.056 11.166159,12.089 0 0 1 1.58593,-1.215 c 0.68813,-0.451 1.40397,-0.854 2.12442,-1.235 a 4.3181233,4.675 0 0 1 3.32519,-0.481 c 0.36946,0.127 -0.37963,-0.256 0.18473,0.083 0.12193,0.074 0.2457,0.141 0.36947,0.221 0.12377,0.08 0.23091,0.158 0.33898,0.245 -0.32513,-0.264 0.0148,0.028 0.085,0.11 0.11084,0.13 0.22722,0.258 0.33991,0.386 0.0573,0.065 0.23923,0.357 0.0212,0.02 a 8.3129646,9 0 0 1 0.53111,0.939 c 0.0822,0.167 0.15887,0.338 0.23368,0.51 0.0369,0.087 0.21245,0.546 0.0776,0.183 a 5.0681374,5.487 0 0 1 0.32513,1.086 c 0.0619,0.388 0.0508,-0.415 0.006,0.3 -0.0111,0.183 0,0.362 -0.0203,0.546 0.0268,-0.279 -0.0296,0.161 -0.0333,0.179 -0.0573,0.268 -0.12931,0.529 -0.19674,0.794 a 2.2167906,2.4 0 0 1 -0.30204,0.684 c -0.0684,0.128 -0.31774,0.4 -0.008,0.028 -0.12192,0.148 -0.24108,0.3 -0.36947,0.441 -0.22906,0.255 -0.47291,0.5 -0.72322,0.725 -0.10438,0.1 -0.21152,0.191 -0.31867,0.284 0.31959,-0.278 -0.15517,0.123 -0.22168,0.175 a 19.428322,21.034 0 0 1 -3.56533,2.213 2.2306455,2.415 0 0 0 -0.79528,3.283 2.2722103,2.46 0 0 0 3.03239,0.862 z"
       id="path11"
       style="fill:#000000;fill-opacity:1;stroke-width:0.961074" />
    <path
       class="c"
       d="m 301.26491,203.282 c -2.11242,-4.264 -6.83511,-7.178 -11.1948,-5.1 -3.66417,1.746 -5.19375,6.252 -5.81907,10.235 -0.76295,4.847 -1.30329,9.671 -2.45325,14.443 -0.63456,2.631 -1.49541,5.2 -2.09117,7.839 a 58.960163,63.833 0 0 0 -1.16197,8.245 38.978567,42.2 0 0 1 -1.27281,8.3 15.941495,17.259 0 0 1 -3.89878,6.451 c -1.97386,2.231 1.15643,5.63 3.13491,3.394 a 20.383389,22.068 0 0 0 5.72671,-11.872 c 0.78604,-4.986 0.81744,-10.1 2.19647,-14.97 a 102.61062,111.091 0 0 0 3.15708,-13.694 c 0.60592,-3.8 0.56436,-8.248 2.28791,-11.72 0.72231,-1.455 1.85287,-2.72 3.49514,-2.562 1.82331,0.175 3.25222,1.783 4.07059,3.436 1.34854,2.723 5.17805,0.3 3.82858,-2.423 z"
       id="path12"
       style="fill:#000000;fill-opacity:1;stroke-width:0.961074" />
    <path
       class="c"
       d="m 248.67,304.708 c 6.886,-13.355 13.623,-26.79 19.976,-40.408 q 2.243,-4.809 4.416,-9.651 l -3.284,0.861 c 12.088,9.283 26.19,16.9 41.26,19.826 l -1.676,-2.952 c -2.29,7.732 -5.522,15.256 -8.535,22.724 -3.19,7.9 -6.235,15.778 -10.133,23.4 -2.406,4.7 -5.051,9.323 -7.77,13.853 a 103.643,103.643 0 0 1 -10.324,14.749 45.716,45.716 0 0 1 -5.884,5.781 21.969,21.969 0 0 1 -5.667,3.351 16.783,16.783 0 0 1 -7.764,0.828 23.207,23.207 0 0 1 -8.567,-2.681 c -6.857,-3.568 -12.728,-8.876 -17.887,-14.567 a 113.632,113.632 0 0 1 -14,-19.244 c -1.552,-2.67 -5.7,-0.257 -4.145,2.422 7.333,12.62 16.979,24.7 29.194,32.887 5.77,3.866 12.3,6.533 19.362,6 5.542,-0.417 10.236,-3.188 14.309,-6.833 a 72.871,72.871 0 0 0 11.652,-14.15 c 3.468,-5.208 6.558,-10.657 9.559,-16.143 a 235.71,235.71 0 0 0 10.762,-23.651 c 3.487,-8.48 7.012,-17 9.908,-25.708 0.193,-0.579 0.38,-1.159 0.553,-1.744 a 2.419,2.419 0 0 0 -1.677,-2.952 C 297.6,267.85 284,260.425 272.2,251.365 a 2.4,2.4 0 0 0 -3.284,0.861 c -5.672,12.647 -11.735,25.115 -17.977,37.489 q -3.177,6.3 -6.415,12.57 c -1.413,2.741 2.727,5.172 4.145,2.423 z"
       id="path13"
       style="fill:#000000;fill-opacity:1" />
    <path
       class="d"
       d="M 117.884,3.062 C 104.8,4.554 91.341,9.262 80.43,20.243 l 5.222,4.457 c -8.9,5.5 -15.891,16.155 -19.1,25.587 -3.779,11.1 -4.907,26.889 -0.421,45.547 l 0.033,0.137 a 8.2,8.2 0 0 1 2.011,-0.568 8.751,8.751 0 0 1 7,2.048 l 7.5,-4.468 0.617,-0.368 C 99.156,77.771 108,71.625 122.219,60.455 c 0.086,0.99 3.257,8.915 4,9.217 0.914,0.372 10.079,-5.294 17.538,-9.9 l 12.587,1.528 c 5.783,1.265 11.21,4.407 16.1,8.611 8.662,7.454 15.628,18.247 19.875,27.849 a 8.566,8.566 0 0 1 7.277,-2.356 8.236,8.236 0 0 1 1.525,0.379 c 4.35,-11.175 4.987,-27.364 -0.506,-42.723 -3.862,-10.8 -13.071,-22.091 -20.332,-25.268 l -8.571,-6.109 C 163.3,10.159 149.275,3.094 131.327,2.545 a 93.614,93.614 0 0 0 -13.443,0.517 z"
       id="path14"
       style="fill:#211715;fill-opacity:1" />
    <path
       class="c"
       d="m 194.29,99.149 a 6.26,6.26 0 0 1 8.793,0.814 c 1.144,1.509 1.276,3.6 1.362,5.416 a 31.6,31.6 0 0 1 -0.349,6.648 c -1.3,7.825 -5.436,17.417 -14.159,18.907 a 2.419,2.419 0 0 0 -1.676,2.952 2.455,2.455 0 0 0 2.952,1.676 c 8.8,-1.5 14.009,-9.8 16.442,-17.716 a 36.824,36.824 0 0 0 1.566,-12.91 c -0.252,-4.221 -1.441,-8.154 -5.25,-10.461 a 11.238,11.238 0 0 0 -13.076,1.28 2.421,2.421 0 0 0 0,3.394 2.45,2.45 0 0 0 3.395,0 z"
       id="path15"
       style="fill:#000000;fill-opacity:1" />
    <path
       class="c"
       d="m 188.085,126.734 a 30.114,30.114 0 0 1 -1.477,7.732 c -0.261,0.859 -0.544,1.71 -0.83,2.561 -0.091,0.271 -0.187,0.539 -0.28,0.809 -0.028,0.079 -0.065,0.155 -0.093,0.234 -0.159,0.438 0.216,-0.482 0.027,-0.065 a 59.951,59.951 0 0 1 -3.908,7.144 69.8,69.8 0 0 1 -15.632,18 29.771,29.771 0 0 1 -11.562,5.84 c -3.01,0.689 -1.736,5.318 1.276,4.628 8.673,-1.988 15.937,-8.232 21.667,-14.763 a 75.392,75.392 0 0 0 12.119,-18.011 37.917,37.917 0 0 0 3.493,-14.107 c 0.1,-3.089 -4.7,-3.086 -4.8,0 z"
       id="path16"
       style="fill:#000000;fill-opacity:1" />
    <path
       class="c"
       d="M 76.87,95.755 A 11.211,11.211 0 0 0 65.362,93.718 c -4.138,1.689 -6.147,5.234 -6.667,9.528 a 35.811,35.811 0 0 0 6.138,24.465 c 2.853,3.935 6.838,7.018 11.719,7.851 a 2.47,2.47 0 0 0 2.952,-1.676 2.419,2.419 0 0 0 -1.676,-2.952 C 69.105,129.444 64.972,119.852 63.669,112.027 A 31.489,31.489 0 0 1 63.311,105.6 c 0.075,-1.836 0.18,-3.931 1.272,-5.489 a 6.233,6.233 0 0 1 8.893,-0.962 2.462,2.462 0 0 0 3.394,0 2.421,2.421 0 0 0 0,-3.394 z"
       id="path17"
       style="fill:#000000;fill-opacity:1" />
    <path
       class="c"
       d="m 75.228,125.832 a 70.148,70.148 0 0 0 8.972,24.845 c 5.082,8.264 12.425,15.728 21.074,20.238 a 40.6,40.6 0 0 0 14.693,4.405 2.416,2.416 0 0 0 2.4,-2.4 2.454,2.454 0 0 0 -2.4,-2.4 C 102.3,168.7 88.555,152.887 83.007,136.976 a 78.238,78.238 0 0 1 -3.151,-12.42 2.419,2.419 0 0 0 -2.956,-1.676 2.454,2.454 0 0 0 -1.676,2.952 z"
       id="path18"
       style="fill:#000000;fill-opacity:1" />
    <path
       class="c"
       d="m 179.069,29.865 a 27.958,27.958 0 0 1 8.9,7.008 54.355,54.355 0 0 1 7.974,11.511 c 4.644,8.919 6.483,19.458 6.179,29.451 a 54.343,54.343 0 0 1 -2.551,15.158 c -0.956,2.945 3.677,4.206 4.629,1.276 3.225,-9.934 3.43,-20.761 1.606,-30.986 A 59.724,59.724 0 0 0 192.656,34.95 c -3.07,-3.635 -6.768,-7.257 -11.164,-9.23 a 2.475,2.475 0 0 0 -3.284,0.861 2.42,2.42 0 0 0 0.861,3.284 z"
       id="path19"
       style="fill:#000000;fill-opacity:1" />
    <path
       class="c"
       d="M 89.9,19.985 C 79.44,23.9 71.678,33.346 66.921,43.159 c -4.651,9.591 -6.3,20.315 -6.092,30.91 a 105.752,105.752 0 0 0 2.985,22.4 c 0.716,3 5.345,1.732 4.629,-1.276 -4.859,-20.395 -4.5,-43.765 9.621,-60.567 3.541,-4.212 7.89,-8.063 13.109,-10.016 A 2.466,2.466 0 0 0 92.849,21.658 2.419,2.419 0 0 0 89.9,19.985 Z"
       id="path20"
       style="fill:#000000;fill-opacity:1" />
    <path
       class="c"
       d="M 173.781,20.472 C 165.8,9.635 153.66,3.107 140.474,1.018 127.062,-1.107 112.344,0.038 99.651,4.983 A 60.55,60.55 0 0 0 78.733,18.546 c -2.188,2.186 1.2,5.581 3.394,3.394 9.478,-9.469 22.021,-14.823 35.236,-16.416 12.542,-1.513 26.034,-0.8 37.467,5.017 a 41.853,41.853 0 0 1 14.806,12.359 2.473,2.473 0 0 0 3.284,0.861 2.418,2.418 0 0 0 0.861,-3.284 z"
       id="path21"
       style="fill:#000000;fill-opacity:1" />
    <path
       class="c"
       d="m 146.322,55.366 c -5.007,3.073 -9.971,6.219 -15.048,9.177 -1.014,0.59 -2.032,1.174 -3.066,1.729 -0.405,0.218 -0.813,0.432 -1.225,0.635 -0.161,0.079 -0.322,0.155 -0.483,0.231 -0.294,0.14 -0.489,0.168 -0.042,0.026 a 1.524,1.524 0 0 0 -0.379,0.134 c -0.146,0.18 -0.418,-0.159 0.033,0.024 a 8.108,8.108 0 0 1 1.679,0.556 c 0.127,0.1 0.3,0.492 0.042,0.018 -0.436,-0.805 -0.842,-1.617 -1.215,-2.455 -0.439,-0.987 -0.842,-1.975 -1.29,-3.164 -0.174,-0.464 -0.346,-0.928 -0.5,-1.4 -0.1,-0.294 -0.347,-1.5 -0.208,-0.424 a 2.44,2.44 0 0 0 -4.1,-1.7 c -10,7.848 -20.177,15.447 -29.742,23.827 q -4.981,4.365 -9.8,8.91 c -2.257,2.123 1.142,5.51 3.394,3.399 9.787,-9.18 20.087,-17.663 30.7,-25.863 q 4.433,-3.425 8.846,-6.874 l -4.1,-1.7 A 25.042,25.042 0 0 0 122,66.78 c 0.762,1.794 1.681,4.923 3.934,5.261 1.773,0.266 3.744,-1.1 5.224,-1.914 2.7,-1.483 5.336,-3.088 7.965,-4.693 3.214,-1.961 6.409,-3.954 9.618,-5.923 2.628,-1.613 0.22,-5.766 -2.423,-4.145 z"
       id="path22"
       style="fill:#010000;fill-opacity:1" />
    <path
       class="c"
       d="m 155.706,63.614 c 8.3,1.88 15.156,7.381 20.724,13.6 a 83.423,83.423 0 0 1 13.382,20.8 2.418,2.418 0 0 0 3.283,0.861 2.455,2.455 0 0 0 0.861,-3.283 87.156,87.156 0 0 0 -14.417,-22.083 c -6.035,-6.66 -13.643,-12.5 -22.557,-14.52 -3.008,-0.682 -4.292,3.945 -1.276,4.628 z"
       id="path23"
       style="fill:#000000;fill-opacity:1" />
    <path
       class="c"
       d="m 99.369,192.207 c -0.688,0.291 -0.132,0.055 0.026,-0.01 l 0.717,-0.3 q 0.626,-0.261 1.253,-0.519 a 28.521,28.521 0 0 0 2.937,-1.261 9.312,9.312 0 0 0 4.281,-4.925 26.556,26.556 0 0 0 1.055,-5.12 88.043,88.043 0 0 0 1.146,-9.562 2.4,2.4 0 0 0 -4.8,0 76.126,76.126 0 0 1 -0.974,8.286 36.572,36.572 0 0 1 -0.916,4.739 c -0.065,0.209 -0.152,0.4 -0.014,0.088 -0.082,0.186 -0.173,0.369 -0.271,0.546 -0.098,0.177 -0.213,0.351 -0.326,0.525 -0.234,0.363 0.1,-0.091 -0.085,0.1 a 5.67,5.67 0 0 1 -2.027,1.438 c -1.437,0.67 -2.96,1.211 -4.424,1.831 a 2.414,2.414 0 0 0 -0.861,3.284 2.464,2.464 0 0 0 3.283,0.861 z"
       id="path24"
       style="fill:#000000;fill-opacity:1" />
    <path
       class="c"
       d="m 156.611,171.206 c 0.23,3.2 0.713,6.356 1.214,9.523 a 18.188,18.188 0 0 0 1.477,5.676 10.1,10.1 0 0 0 5.54,4.521 c 0.684,0.27 1.373,0.528 2.057,0.8 q 0.669,0.264 1.337,0.533 l 0.554,0.227 c 0.5,0.2 -0.466,-0.207 0.1,0.045 a 2.476,2.476 0 0 0 3.283,-0.861 2.417,2.417 0 0 0 -0.861,-3.284 c -1.488,-0.659 -3.011,-1.25 -4.531,-1.833 a 9.271,9.271 0 0 1 -2.159,-1.108 c 0.317,0.23 -0.181,-0.157 -0.24,-0.212 -0.161,-0.149 -0.305,-0.311 -0.457,-0.468 -0.371,-0.383 0.109,0.241 -0.128,-0.174 -0.116,-0.2 -0.237,-0.406 -0.354,-0.608 -0.047,-0.088 -0.09,-0.177 -0.131,-0.268 q 0.144,0.358 0.05,0.115 c -0.069,-0.187 -0.135,-0.375 -0.193,-0.566 -0.119,-0.388 -0.212,-0.783 -0.293,-1.181 -0.17,-0.834 -0.278,-1.679 -0.41,-2.52 -0.436,-2.784 -0.857,-5.542 -1.059,-8.356 a 2.459,2.459 0 0 0 -2.4,-2.4 2.419,2.419 0 0 0 -2.4,2.4 z"
       id="path25"
       style="fill:#000000;fill-opacity:1" />
    <path
       class="b"
       d="m 139.579,192.6 -0.19,0.087 c -0.475,0.215 -1,0.478 -1.157,0.976 a 1.2,1.2 0 0 0 0.017,0.686 c -2.932,0.007 -6.045,0.012 -8.7,0.016 a 1.21,1.21 0 0 0 0.021,-0.7 c -0.153,-0.5 -0.682,-0.761 -1.157,-0.976 a 79.45,79.45 0 0 1 -22.927,-15.979 39.461,39.461 0 0 0 -8.138,11.081 c 2.166,7.783 5.656,22.251 10.69,36.674 8.936,25.6 21.183,54.178 27.775,68.411 l 0.712,1.539 c 7.764,-18.7 18.07,-47.744 25.2,-71.669 a 337.287,337.287 0 0 0 8.365,-35.656 38.885,38.885 0 0 0 -7.772,-10.38 79.506,79.506 0 0 1 -22.739,15.89 z"
       id="path26"
       style="fill:#dadada;fill-opacity:1" />
    <path
       class="e"
       d="m 138.294,290.084 c 3.54,-8.8 7.487,-19.358 11.362,-30.384 -2.892,-19.557 -6.917,-45.9 -6.9,-47.06 a 18.535,18.535 0 0 1 1.2,-5.45 c 0.457,-1.4 0.808,-2.663 1.116,-3.885 -3.252,-3.947 -6.206,-7.586 -6.575,-8.35 a 4.7,4.7 0 0 1 -0.246,-0.607 c -2.936,0 -6.047,0.009 -8.7,0.018 l -4.773,6.012 c 0.027,0.123 0.044,0.246 0.071,0.369 0.466,2.364 0.914,4.729 1.468,7.093 0.1,0.457 0.219,0.923 0.334,1.389 a 12.241,12.241 0 0 1 0.5,3.068 c -0.009,0.764 -3.27,27.415 -5.7,47.324 5.5,13.474 10.776,25.49 14.371,33.251 l 0.826,1.275 q 0.802,-1.961 1.646,-4.063 z"
       id="path27" />
    <path
       class="c"
       d="m 175.611,193.146 c 14.327,9.669 30.389,16.422 45.064,25.5 a 58.115,58.115 0 0 1 11.49,9.1 38.976,38.976 0 0 1 4.556,5.69 c 0.671,1.032 1.332,2.071 2,3.107 a 13.3,13.3 0 0 1 0.78,1.323 c 0.108,0.222 0.322,0.9 0.617,1.059 0.172,0.09 -0.276,-0.6 -0.266,-0.349 0.008,0.212 0.317,0.608 0.409,0.808 0.084,0.184 0.163,0.37 0.245,0.555 0.229,0.512 -0.147,-0.356 0,0 0.075,0.182 0.151,0.363 0.225,0.545 0.572,1.394 1.116,2.8 1.655,4.206 1.136,2.96 2.238,5.932 3.348,8.9 3.4,9.09 6.9,18.073 11.028,26.861 a 2.419,2.419 0 0 0 3.283,0.861 2.453,2.453 0 0 0 0.861,-3.284 c -1.794,-3.814 -3.546,-7.635 -5.147,-11.536 -1.521,-3.708 -2.846,-7.488 -4.278,-11.231 -1.773,-4.635 -3.459,-9.3 -5.271,-13.926 -0.5,-1.279 -1.013,-2.556 -1.56,-3.817 a 5.568,5.568 0 0 0 -1.139,-1.985 l 0.617,1.059 a 37.561,37.561 0 0 0 -4.9,-7.9 48.805,48.805 0 0 0 -5.85,-6.475 75.1,75.1 0 0 0 -13.686,-9.73 c -9.092,-5.224 -18.445,-9.982 -27.607,-15.081 -4.767,-2.654 -9.53,-5.355 -14.055,-8.409 -2.567,-1.732 -4.972,2.424 -2.422,4.145 z"
       id="path28"
       style="fill:#000000;fill-opacity:1" />
    <path
       class="c"
       d="m 213.272,359.564 c 0.085,-14.679 -0.186,-29.357 -0.069,-44.036 0.022,-2.87 -0.043,-5.768 0.128,-8.634 0.026,-0.433 0.066,-0.865 0.111,-1.3 0.029,-0.268 0.061,-0.536 0.093,-0.8 a 2.056,2.056 0 0 1 0.05,-0.382 c 0.454,-3.044 1.023,-6.067 1.638,-9.083 3.489,-17.08 7.9,-33.971 12.02,-50.906 1.548,-6.36 3.307,-12.751 4.353,-19.22 a 2.473,2.473 0 0 0 -1.676,-2.952 2.418,2.418 0 0 0 -2.952,1.676 c -0.9,5.561 -2.377,11.056 -3.7,16.526 -2.081,8.6 -4.219,17.194 -6.3,25.8 -2.055,8.485 -4.092,16.979 -5.9,25.522 -1.265,5.991 -2.515,11.987 -2.6,18.125 -0.239,16.557 0.1,33.112 0.007,49.668 -0.018,3.089 4.782,3.093 4.8,0 z"
       id="path29"
       style="fill:#000000;fill-opacity:1" />
    <path
       class="c"
       d="m 59.272085,359.65708 c 0.0077,-9.67696 0.123817,-19.35201 0.186206,-29.02801 0.02879,-4.3912 0.04415,-8.7824 0.0192,-13.17361 A 90.007651,90.007651 0 0 0 59.18954,307.30243 c -0.987661,-8.2497 -3.013853,-16.40726 -4.895111,-24.48803 -2.207599,-9.485 -4.539016,-18.94024 -6.861794,-28.3974 -1.247773,-5.09476 -2.506105,-10.18951 -3.705887,-15.29675 -0.751543,-3.1991 -1.54148,-6.40779 -2.075143,-9.652 a 2.3198986,2.3198986 0 0 0 -2.833405,-1.60867 2.3573318,2.3573318 0 0 0 -1.608668,2.8334 c 1.168108,7.10271 3.126152,14.10944 4.835602,21.09601 2.320858,9.48308 4.671471,18.9604 6.918423,28.46171 1.993558,8.43207 4.066781,16.90445 5.39326,25.47378 a 67.203153,67.203153 0 0 1 0.490471,9.02236 c 0.04127,4.27218 0.03935,8.54244 0.0192,12.81847 -0.04991,10.6963 -0.191965,21.39355 -0.203483,32.09081 0,2.96394 4.607163,2.96874 4.607163,0 z"
       id="path30"
       style="fill:#000000;fill-opacity:1;stroke-width:0.959826" />
    <path
       class="c"
       d="m 94.217285,189.131 -0.01952,0.01 a 2.3208349,2.378 0 0 0 -1.160417,2.073 v 0.01 l 2.342306,-2.4 a 2.3344983,2.392 0 0 0 -1.201408,0.327 c -1.637662,0.982 0.533851,-0.223 -0.674389,0.453 -0.654869,0.366 -1.268749,0.839 -1.903123,1.249 q -2.228119,1.45 -4.478685,2.863 -4.533338,2.851 -9.123282,5.606 -9.086195,5.481 -18.357823,10.642 c -4.629958,2.581 -9.506835,4.815 -13.934769,7.751 A 40.645841,41.647 0 0 0 32.799093,230.9 c -3.367065,5.7 -5.482948,12.346 -7.417303,18.676 -1.923618,6.291 -3.48906,12.7 -4.879804,19.131 -3.054757,14.193 -5.257501,28.567 -7.206495,42.956 -2.158825,15.937 -3.9311699,31.925 -5.7913513,47.901 a 2.3549935,2.413 0 0 0 2.342306,2.4 2.3989118,2.458 0 0 0 2.3423063,-2.4 c 3.260685,-28.006 6.148553,-56.138 11.639309,-83.8 2.497484,-12.583 5.454645,-25.3 10.40179,-37.144 a 35.157037,36.023 0 0 1 10.88782,-14.637 c 4.087324,-3.232 8.762176,-5.427 13.29649,-7.893 6.562361,-3.57 13.027125,-7.326 19.459683,-11.134 q 4.953978,-2.934 9.839638,-5.984 2.504315,-1.558 4.989111,-3.154 a 24.560055,25.165 0 0 0 4.313747,-2.9 l -1.659133,0.7 h 0.01952 a 2.3764647,2.435 0 0 0 2.342306,-2.4 v -0.01 l -1.160417,2.072 0.01952,-0.01 c 2.69658,-1.382 0.326947,-5.523 -2.363777,-4.145 z"
       id="path31"
       style="fill:#000000;fill-opacity:1;stroke-width:0.987907" />
    <path
       class="c"
       d="m 127.305,214.58 c 5.151,0 10.3,-0.114 15.453,-0.116 a 2.4,2.4 0 0 0 0,-4.8 c -5.151,0 -10.3,0.114 -15.453,0.116 a 2.4,2.4 0 0 0 0,4.8 z"
       id="path32"
       style="fill:#006000;fill-opacity:1" />
    <path
       class="c"
       d="m 123.994,208.478 a 13.857,13.857 0 0 1 0.724,4.186 c -0.042,0.548 -0.119,1.1 -0.181,1.642 -0.249,2.176 -0.51,4.351 -0.77,6.526 q -1.26,10.518 -2.55,21.031 -1.412,11.568 -2.829,23.134 -0.562,4.6 -1.123,9.192 -0.207,1.689 -0.411,3.379 c -0.166,1.361 -0.364,2.371 0.511,3.587 2.721,3.779 5.447,7.555 8.268,11.26 2.821,3.705 5.66,7.659 9.116,10.83 a 2.45,2.45 0 0 0 3.4,0 c 3.313,-3.234 6,-7.213 8.668,-10.974 q 2.358,-3.324 4.619,-6.717 0.9,-1.353 1.791,-2.716 c 0.615,-0.947 1.653,-2.122 1.658,-3.286 a 46.172,46.172 0 0 0 -0.857,-6.423 q -0.684,-4.848 -1.4,-9.691 c -2.229,-15.152 -4.573,-30.287 -6.754,-45.445 q -0.257,-1.776 -0.5,-3.554 c -0.1,-0.746 0.058,0.459 -0.01,-0.075 -0.026,-0.2 -0.053,-0.4 -0.078,-0.6 -0.033,-0.264 -0.074,-0.53 -0.094,-0.8 -0.175,-2.35 1,-4.7 1.635,-6.92 1.059,-3.67 1.714,-7.436 2.888,-11.075 a 2.422,2.422 0 0 0 -2.315,-3.038 c -7.977,0 -15.955,0.037 -23.933,0.038 a 2.427,2.427 0 0 0 -2.314,3.038 c 1.111,4.454 1.82,8.994 2.851,13.467 0.694,3.008 5.323,1.735 4.629,-1.277 -1.032,-4.472 -1.74,-9.012 -2.851,-13.466 l -2.315,3.038 c 7.978,0 15.956,-0.037 23.933,-0.038 l -2.314,-3.038 c -0.827,2.565 -1.415,5.182 -2.039,7.8 -0.657,2.761 -1.713,5.428 -2.308,8.2 a 12.974,12.974 0 0 0 -0.163,4.764 c 0.58,4.385 1.242,8.76 1.891,13.135 1.915,12.916 3.878,25.825 5.773,38.744 q 0.615,4.2 1.212,8.4 0.121,0.867 0.241,1.733 c 0.033,0.237 0.065,0.474 0.1,0.711 0.09,0.656 -0.062,-0.472 0.02,0.149 0.1,0.739 0.194,1.477 0.279,2.216 l 0.328,-1.211 c -2.47,3.907 -5.067,7.738 -7.74,11.507 a 71.426,71.426 0 0 1 -7.919,10 h 3.4 c -3.4,-3.121 -6.2,-6.987 -8.972,-10.656 -2.745,-3.633 -5.4,-7.33 -8.066,-11.022 l 0.328,1.211 q 1.694,-14.081 3.439,-28.156 2.01,-16.44 3.991,-32.884 c 0.189,-1.591 0.379,-3.183 0.556,-4.775 a 18.408,18.408 0 0 0 -0.8,-6.368 c -0.725,-2.991 -5.355,-1.722 -4.643,1.287 z"
       id="path33"
       style="fill:#006000;fill-opacity:1" />
    <path
       class="b"
       d="M 115.12,212.532 C 107.757,205.216 102.935,196.353 97.496,187.5 a 39.232,39.232 0 0 1 7.991,-10.795 79.45,79.45 0 0 0 22.927,15.979 c 0.475,0.215 1,0.478 1.157,0.976 a 1.835,1.835 0 0 1 -0.265,1.3 c -0.686,1.417 -10.366,12.868 -14.186,17.572 z"
       id="path34"
       style="fill:#dadada;fill-opacity:1" />
    <path
       class="b"
       d="m 152.683,212.532 c 7.363,-7.316 12.185,-16.179 17.624,-25.032 a 39.248,39.248 0 0 0 -7.99,-10.795 79.468,79.468 0 0 1 -22.928,15.979 c -0.475,0.215 -1,0.478 -1.157,0.976 a 1.835,1.835 0 0 0 0.265,1.3 c 0.686,1.417 10.366,12.868 14.186,17.572 z"
       id="path35"
       style="fill:#dadada;fill-opacity:1" />
    <path
       class="c"
       d="m 116.817,210.835 c -7.134,-7.145 -12.012,-16.009 -17.248,-24.546 v 2.423 a 37.936,37.936 0 0 1 7.615,-10.31 h -3.395 a 81.308,81.308 0 0 0 11.77,9.745 q 3.039,2.082 6.258,3.883 1.562,0.871 3.162,1.669 0.738,0.366 1.484,0.716 0.441,0.207 0.884,0.409 a 2.459,2.459 0 0 1 0.284,0.147 q 0.35,0.2 -0.132,-0.1 l -0.328,-1.211 c 0.025,0.317 -0.31,0.674 -0.521,0.965 -0.18,0.247 -0.366,0.49 -0.551,0.734 0.334,-0.439 -0.355,0.453 -0.459,0.584 -1.3,1.641 -2.621,3.258 -3.949,4.873 -2.75,3.345 -5.536,6.659 -8.268,10.019 a 2.471,2.471 0 0 0 0,3.394 2.417,2.417 0 0 0 3.394,0 c 3.977,-4.891 8.082,-9.679 12,-14.618 1.56,-1.966 4.325,-4.728 2.693,-7.434 a 5.448,5.448 0 0 0 -2.624,-1.906 q -1.5,-0.7 -2.972,-1.478 -3.231,-1.7 -6.294,-3.7 a 75.515,75.515 0 0 1 -12.436,-10.09 2.447,2.447 0 0 0 -3.395,0 40.424,40.424 0 0 0 -7.355,9.434 8.325,8.325 0 0 0 -1.3,2.74 c -0.157,1.166 0.639,2.106 1.212,3.048 1.032,1.7 2.053,3.4 3.086,5.1 4.08,6.708 8.414,13.319 13.986,18.9 2.19,2.193 5.582,-1.2 3.399,-3.39 z"
       id="path36"
       style="fill:#808383;fill-opacity:1" />
    <path
       class="c"
       d="m 154.38,214.229 c 5.572,-5.581 9.906,-12.192 13.986,-18.9 1.033,-1.7 2.054,-3.4 3.086,-5.1 a 5.706,5.706 0 0 0 1.255,-2.729 c 0,-1.054 -0.822,-2.164 -1.337,-3.059 a 40.481,40.481 0 0 0 -7.356,-9.434 2.443,2.443 0 0 0 -3.394,0 74.708,74.708 0 0 1 -10.98,9.12 q -2.953,2.01 -6.077,3.758 c -1.929,1.077 -4.08,1.867 -5.954,3.02 -3.605,2.217 -0.966,5.715 0.818,8 1.923,2.46 3.92,4.863 5.908,7.27 2.219,2.685 4.454,5.355 6.651,8.057 a 2.415,2.415 0 0 0 3.394,0 2.455,2.455 0 0 0 0,-3.394 c -2.731,-3.36 -5.518,-6.674 -8.268,-10.019 -1.3,-1.586 -2.6,-3.173 -3.878,-4.783 q -0.207,-0.262 -0.413,-0.526 c -0.04,-0.051 -0.466,-0.607 -0.117,-0.148 -0.17,-0.224 -0.341,-0.448 -0.507,-0.675 -0.221,-0.3 -0.591,-0.692 -0.565,-1.024 l -0.328,1.211 c -0.112,0.23 -0.429,0.2 0.008,0.021 0.285,-0.118 0.563,-0.261 0.843,-0.391 q 0.745,-0.346 1.483,-0.71 1.6,-0.79 3.162,-1.657 3.315,-1.838 6.444,-3.987 a 81.308,81.308 0 0 0 11.77,-9.745 h -3.394 a 37.938,37.938 0 0 1 7.614,10.31 v -2.423 c -5.236,8.537 -10.114,17.4 -17.248,24.546 -2.186,2.186 1.208,5.581 3.394,3.391 z"
       id="path37"
       style="fill:#808383;fill-opacity:1" />
    <path
       class="a"
       d="m 135.814,292.871 c -6.592,-14.233 -18.839,-42.807 -27.775,-68.411 -5.549,-15.9 -9.221,-31.85 -11.305,-38.847 -3.818,0.184 -20.16,21.766 -22.815,28.66 -0.175,0.453 7.816,7.664 11.433,10.908 -1.935,1.737 -8.58,9.531 -8.7,10.318 -0.092,0.616 42.68,53.013 54.924,68.587 z"
       id="path38" />
    <path
       class="a"
       d="m 128.367,318.142 a 68.788,68.788 0 0 1 2.521,-11.116 c 7.587,-15.213 21.777,-53.881 30.836,-84.285 a 335.972,335.972 0 0 0 8.616,-37.131 c 3.943,0.445 20.106,21.811 22.745,28.663 0.174,0.453 -7.817,7.664 -11.434,10.908 1.933,1.733 8.581,9.531 8.7,10.318 0.093,0.616 -31.747,50.142 -48.663,75.627 z"
       id="path39" />
    <path
       class="c"
       d="m 133.274,302.389 c -9.2,-11.7 -18.627,-23.238 -27.983,-34.82 q -7.764,-9.612 -15.513,-19.235 -2.993,-3.721 -5.97,-7.454 -1.124,-1.411 -2.242,-2.827 -0.462,-0.587 -0.923,-1.175 l -0.373,-0.477 c -0.134,-0.173 -0.717,-0.934 -0.158,-0.2 -0.378,-0.5 -0.746,-1 -1.125,-1.495 -0.058,-0.076 -0.153,-0.307 -0.233,-0.348 -0.007,0 -0.012,-0.036 -0.019,-0.036 a 2.344,2.344 0 0 1 0.243,1.772 q -0.322,0.711 -0.151,0.381 c 0.14,-0.082 0.328,-0.509 0.418,-0.637 0.09,-0.128 0.708,-0.94 0.443,-0.6 0.354,-0.455 0.717,-0.9 1.082,-1.348 q 1.075,-1.312 2.188,-2.594 a 51.193,51.193 0 0 1 4.091,-4.418 2.418,2.418 0 0 0 0,-3.394 c -3.13,-2.809 -6.272,-5.612 -9.29,-8.542 -0.5,-0.488 -1.007,-0.977 -1.484,-1.492 -0.15,-0.162 -0.286,-0.355 -0.447,-0.506 0.444,0.415 0.3,0.425 0.19,0.223 q -0.036,2.409 0.292,1.55 c 0.068,-0.167 0.035,-0.088 -0.1,0.234 a 13.869,13.869 0 0 0 0.8,-1.629 c 0.36,-0.681 0.742,-1.35 1.135,-2.012 a 116.329,116.329 0 0 1 13.828,-18.641 42.505,42.505 0 0 1 3.652,-3.663 c 0.158,-0.137 0.985,-0.77 0.4,-0.347 0.206,-0.149 0.409,-0.3 0.625,-0.435 0.2,-0.123 0.407,-0.216 0.6,-0.335 0.251,-0.151 -0.62,0.244 -0.262,0.119 0.233,-0.081 0.645,-0.065 -0.251,0.009 l -2.314,-1.762 c 1.8,6.072 3.276,12.238 4.971,18.339 q 3.521,12.674 7.939,25.05 c 5.509,15.347 11.6,30.486 18.012,45.479 2.716,6.356 5.493,12.687 8.4,18.96 a 2.421,2.421 0 0 0 3.284,0.861 2.456,2.456 0 0 0 0.861,-3.284 c -5.684,-12.284 -10.959,-24.764 -16.006,-37.322 -6.339,-15.773 -12.364,-31.694 -17.022,-48.053 -2.016,-7.079 -3.717,-14.249 -5.806,-21.306 a 2.431,2.431 0 0 0 -2.314,-1.762 c -2.813,0.233 -5.108,2.827 -6.938,4.74 a 112.661,112.661 0 0 0 -8.33,10.016 121.93,121.93 0 0 0 -7.178,10.42 37.53,37.53 0 0 0 -2.163,3.994 c -0.472,1.047 -0.9,2.048 -0.276,3.158 A 7.575,7.575 0 0 0 73,216.967 c 3.319,3.518 7.06,6.683 10.658,9.911 v -3.394 a 69.033,69.033 0 0 0 -7.872,9.019 c -0.942,1.227 -2.071,2.619 -1.2,4.229 a 6.222,6.222 0 0 0 0.485,0.71 c 2.782,3.781 5.793,7.406 8.728,11.067 10.592,13.214 21.269,26.36 31.9,39.546 4.748,5.893 9.507,11.779 14.185,17.728 a 2.413,2.413 0 0 0 3.394,0 2.46,2.46 0 0 0 0,-3.394 z"
       id="path40"
       style="fill:#000000;fill-opacity:1" />
    <path
       class="c"
       d="m 133.58,351.435 c -0.575,-10.129 -2.252,-20.17 -2.8,-30.3 a 21.045,21.045 0 0 1 0.326,-5.173 36.949,36.949 0 0 1 2.51,-9.069 c 1.924,-4 3.662,-8.08 5.358,-12.176 a 735.325,735.325 0 0 0 24.952,-70.971 324.09,324.09 0 0 0 8.725,-37.49 l -2.952,1.676 c 0.114,0.017 0.686,0.163 0.207,0.018 -0.459,-0.139 0.114,0.063 0.246,0.146 0.205,0.128 0.4,0.263 0.6,0.4 0.484,0.319 -0.247,-0.239 0.316,0.249 a 42.052,42.052 0 0 1 3.183,3.08 108.364,108.364 0 0 1 7.229,8.7 c 2.405,3.184 4.72,6.45 6.81,9.85 0.767,1.247 1.511,2.515 2.151,3.832 a 4.261,4.261 0 0 0 0.343,0.742 l -0.125,-0.3 q 0.2,0.584 0.187,-0.675 c 0.045,-0.276 0.243,-1.126 0.061,-0.693 0.258,-0.615 0.185,-0.237 -0.078,0.054 -0.246,0.271 -0.505,0.532 -0.763,0.791 -3.235,3.256 -6.7,6.294 -10.119,9.358 a 2.419,2.419 0 0 0 0,3.394 66.669,66.669 0 0 1 6.609,7.416 c 0.253,0.312 0.505,0.626 0.752,0.943 -0.276,-0.354 0.28,0.374 0.346,0.465 0.14,0.194 0.262,0.408 0.409,0.594 0.031,0.039 0.07,0.157 0.107,0.178 q 0.171,0.33 -0.152,-0.381 l 0.01,-1.217 c -0.008,0.041 0.393,-0.729 0.126,-0.326 -0.1,0.153 -0.181,0.326 -0.273,0.486 -2.059,3.573 -4.339,7.03 -6.547,10.512 q -13.208,20.824 -26.7,41.466 -7.47,11.478 -15.026,22.9 c -1.713,2.581 2.443,4.987 4.145,2.423 q 14.451,-21.776 28.548,-43.782 6.368,-9.88 12.678,-19.8 c 2.353,-3.706 4.767,-7.389 6.978,-11.182 a 6.337,6.337 0 0 0 0.695,-1.408 c 0.418,-1.522 -0.773,-2.807 -1.626,-3.911 a 68.4,68.4 0 0 0 -7.684,-8.775 v 3.394 c 3.308,-2.968 6.648,-5.919 9.807,-9.046 1.126,-1.115 2.688,-2.419 2.244,-4.2 a 17.264,17.264 0 0 0 -1.96,-4.009 118.932,118.932 0 0 0 -15.033,-20.379 39.871,39.871 0 0 0 -3.864,-3.837 8.066,8.066 0 0 0 -3.557,-2.1 c -1.182,-0.172 -2.71,0.276 -2.952,1.676 -4.187,24.218 -11.489,47.623 -19.537,70.8 -4.047,11.655 -8.289,23.252 -12.923,34.687 -1.69,4.171 -3.394,8.233 -5.3,12.335 q -0.526,1.133 -1.074,2.256 a 26.9,26.9 0 0 0 -1.638,5 38.149,38.149 0 0 0 -1.628,8.938 c -0.082,4.76 0.683,9.6 1.179,14.324 0.634,6.029 1.335,12.063 1.679,18.117 0.174,3.071 4.975,3.091 4.8,0 z"
       id="path41"
       style="fill:#000000;fill-opacity:1" />
    <path
       class="c"
       d="m 142.2,328.206 c 0,-0.262 0.02,-0.521 0.039,-0.783 0.037,-0.493 -0.116,0.6 -0.014,0.12 0.028,-0.127 0.049,-0.256 0.079,-0.383 0.06,-0.255 0.144,-0.5 0.225,-0.748 0.151,-0.46 -0.265,0.522 -0.039,0.094 0.081,-0.153 0.156,-0.309 0.245,-0.458 0.068,-0.112 0.143,-0.218 0.214,-0.328 0.263,-0.4 -0.388,0.418 -0.049,0.074 a 5.046,5.046 0 0 0 0.58,-0.559 c -0.254,0.378 -0.307,0.224 -0.037,0.05 0.08,-0.052 0.162,-0.1 0.244,-0.148 a 1.987,1.987 0 0 0 0.391,-0.2 q -0.516,0.21 -0.152,0.068 c 0.1,-0.036 0.2,-0.07 0.3,-0.1 a 2.932,2.932 0 0 1 0.98,-0.223 c -0.6,-0.059 -0.09,0.019 0.088,0.008 0.194,-0.012 0.39,-0.021 0.584,-0.018 0.194,0.003 0.37,0.024 0.555,0.035 0.6,0.037 -0.509,-0.128 0.054,0.014 0.088,0.022 1.085,0.307 1.085,0.308 -0.035,0.05 -0.519,-0.252 -0.024,0 0.129,0.067 0.256,0.139 0.379,0.217 0.254,0.16 0.259,0.345 -0.023,-0.047 a 1.625,1.625 0 0 0 0.213,0.18 c 0.2,0.177 0.361,0.445 0.568,0.6 -0.4,-0.3 -0.214,-0.288 -0.054,-0.042 a 5.5,5.5 0 0 1 0.276,0.476 c 0.112,0.215 0.114,0.507 -0.009,-0.069 0.028,0.13 0.1,0.267 0.145,0.395 a 7.136,7.136 0 0 1 0.222,0.826 3.029,3.029 0 0 0 0.076,0.429 c -0.2,-0.537 -0.04,-0.322 -0.019,-0.053 a 8.061,8.061 0 0 1 0.026,0.958 c 0,0.089 -0.012,0.179 -0.017,0.268 -0.013,0.288 -0.158,0.2 0.041,-0.254 a 5.06,5.06 0 0 0 -0.139,0.674 4.221,4.221 0 0 0 -0.222,0.678 c -0.063,-0.087 0.27,-0.584 0.045,-0.127 q -0.109,0.224 -0.237,0.437 c -0.065,0.108 -0.138,0.211 -0.206,0.317 -0.254,0.4 0.387,-0.432 0.063,-0.079 -0.179,0.195 -0.363,0.378 -0.552,0.563 -0.35,0.342 0.474,-0.309 0.058,-0.037 -0.117,0.076 -0.231,0.157 -0.352,0.23 -0.082,0.049 -0.165,0.1 -0.25,0.141 -0.588,0.311 0.3,-0.07 -0.107,0.063 a 8.981,8.981 0 0 1 -0.926,0.266 c -0.19,0.04 -0.583,0.239 -0.046,0.023 a 1.938,1.938 0 0 1 -0.55,0.042 c -0.214,0.01 -0.936,0.115 -1.1,-0.026 l 0.3,0.044 q -0.163,-0.024 -0.324,-0.057 a 5.755,5.755 0 0 1 -0.607,-0.158 l -0.143,-0.049 q -0.363,-0.138 0.164,0.078 c -0.091,-0.107 -0.375,-0.187 -0.5,-0.263 a 2.114,2.114 0 0 0 -0.343,-0.226 q 0.458,0.364 0.17,0.127 l -0.1,-0.087 c -0.1,-0.088 -0.191,-0.18 -0.281,-0.276 -0.06,-0.063 -0.118,-0.127 -0.174,-0.193 q -0.235,-0.288 0.136,0.182 c -0.126,-0.261 -0.333,-0.5 -0.469,-0.758 -0.057,-0.11 -0.1,-0.235 -0.163,-0.341 0.369,0.614 0.09,0.213 0.014,-0.009 a 7.669,7.669 0 0 1 -0.228,-0.827 c -0.025,-0.117 -0.041,-0.237 -0.068,-0.353 -0.1,-0.41 0.053,0.683 0.009,0.061 -0.019,-0.257 -0.036,-0.511 -0.038,-0.769 a 2.4,2.4 0 0 0 -4.8,0 c 0.021,3.046 1.377,6.345 4.219,7.783 3.316,1.678 8.034,1.108 10.492,-1.83 a 9.069,9.069 0 0 0 1.465,-8.959 7.992,7.992 0 0 0 -3.351,-4.171 9.33,9.33 0 0 0 -6.12,-1 7.778,7.778 0 0 0 -5.223,3.166 8.665,8.665 0 0 0 -1.482,5.014 2.4,2.4 0 0 0 4.8,0 z"
       id="path42"
       style="fill:#000000;fill-opacity:1" />
    <path
       class="c"
       d="m 123.8,144.227 a 22.9,22.9 0 0 0 11.03,2.543 c 3.9,-0.025 7.9,-0.768 11.025,-3.206 a 2.415,2.415 0 0 0 0,-3.395 2.463,2.463 0 0 0 -3.4,0 c 0.7,-0.54 0.04,-0.046 -0.138,0.068 q -0.341,0.218 -0.7,0.405 c -0.141,0.074 -0.924,0.42 -0.384,0.2 q -0.476,0.192 -0.964,0.35 a 17.6,17.6 0 0 1 -5.808,0.776 18.357,18.357 0 0 1 -5.545,-0.747 c -0.353,-0.105 -0.7,-0.231 -1.045,-0.351 -0.114,-0.039 -0.224,-0.089 -0.337,-0.131 0.589,0.218 0.075,0.033 -0.037,-0.019 -0.433,-0.2 -0.858,-0.416 -1.281,-0.639 a 2.451,2.451 0 0 0 -3.283,0.861 2.426,2.426 0 0 0 0.861,3.283 z"
       id="path43"
       style="fill:#000000;fill-opacity:1" />
    <path
       class="c"
       d="m 133.856,117.926 a 52.874,52.874 0 0 1 1.248,5.71 l -0.086,-0.638 a 3.407,3.407 0 0 1 0.022,0.788 l 0.086,-0.638 a 1.978,1.978 0 0 1 -0.087,0.355 l 0.242,-0.574 a 1.481,1.481 0 0 1 -0.125,0.228 l 0.375,-0.486 a 1.122,1.122 0 0 1 -0.187,0.184 l 0.486,-0.375 a 3.482,3.482 0 0 1 -0.452,0.239 l 0.573,-0.242 a 3.33,3.33 0 0 1 -0.762,0.223 l 0.638,-0.086 a 3,3 0 0 1 -0.715,0 l 0.638,0.086 c -0.27,-0.038 -0.535,-0.1 -0.805,-0.14 a 2.655,2.655 0 0 0 -1.849,0.242 2.4,2.4 0 0 0 -0.861,3.284 2.3,2.3 0 0 0 1.434,1.1 c 0.567,0.076 1.118,0.222 1.694,0.247 a 5.322,5.322 0 0 0 2.438,-0.571 3.4,3.4 0 0 0 1.92,-2.257 5.89,5.89 0 0 0 -0.027,-2.49 c -0.311,-1.839 -0.736,-3.663 -1.209,-5.467 a 2.4008237,2.4008237 0 0 0 -4.629,1.276 z"
       id="path44"
       style="fill:#000000;fill-opacity:1" />
    <path
       class="c"
       d="m 103.157,101.9 c -0.954,3.1 -0.332,10.226 5.538,10.833 7.759,-0.047 8.172,-8.664 5.56,-12.716 -2.139,-3.317 -8.427,-4.701 -11.098,1.883 z"
       id="path45"
       style="fill:#000000;fill-opacity:1" />
    <path
       class="c"
       d="m 165.289,101.9 c 0.953,3.1 0.332,10.226 -5.538,10.833 -7.759,-0.047 -8.172,-8.665 -5.561,-12.717 2.139,-3.316 8.427,-4.7 11.099,1.884 z"
       id="path46"
       style="fill:#000000;fill-opacity:1" />
  </g>
</svg>
