<?xml version="1.0" encoding="UTF-8" standalone="no"?>
<!-- Created with Inkscape (http://www.inkscape.org/) -->

<svg
   width="531.71997"
   height="385.00601"
   viewBox="0 0 140.68424 101.86617"
   version="1.1"
   id="svg1"
   xml:space="preserve"
   inkscape:version="1.4.2 (f4327f4, 2025-05-13)"
   sodipodi:docname="img1.svg"
   xmlns:inkscape="http://www.inkscape.org/namespaces/inkscape"
   xmlns:sodipodi="http://sodipodi.sourceforge.net/DTD/sodipodi-0.dtd"
   xmlns="http://www.w3.org/2000/svg"
   xmlns:svg="http://www.w3.org/2000/svg"><sodipodi:namedview
     id="namedview1"
     pagecolor="#ffffff"
     bordercolor="#000000"
     borderopacity="0.25"
     inkscape:showpageshadow="2"
     inkscape:pageopacity="0.0"
     inkscape:pagecheckerboard="0"
     inkscape:deskcolor="#d1d1d1"
     inkscape:document-units="px"
     inkscape:zoom="0.70985066"
     inkscape:cx="329.6468"
     inkscape:cy="171.16276"
     inkscape:current-layer="layer1" /><defs
     id="defs1"><filter
       style="color-interpolation-filters:sRGB"
       inkscape:label="Nudge CMY"
       id="filter160"
       x="-0.0009380863"
       y="-0.0012953368"
       width="1.0013133"
       height="1.0018135"><feFlood
         flood-opacity="0.0745098"
         flood-color="rgb(36,7,0)"
         result="flood"
         id="feFlood158" /><feColorMatrix
         in="SourceGraphic"
         values="0 0 0 0 0 0 0 0 0 1 0 0 0 0 1 -1 0 0 1 0 "
         result="colormatrix1"
         id="feColorMatrix158" /><feOffset
         dy="0.2"
         dx="-0.2"
         result="offset1"
         id="feOffset158" /><feBlend
         in2="flood"
         mode="multiply"
         result="blend1"
         id="feBlend158" /><feColorMatrix
         in="SourceGraphic"
         values="0 0 0 0 1 0 0 0 0 0 0 0 0 0 1 0 -1 0 1 0 "
         result="colormatrix2"
         id="feColorMatrix159" /><feOffset
         dy="-0.2"
         dx="0.2"
         result="offset2"
         id="feOffset159" /><feBlend
         in2="blend1"
         mode="multiply"
         result="blend2"
         id="feBlend159" /><feOffset
         dy="-0.3"
         dx="-0.3"
         result="offset3"
         id="feOffset160" /><feColorMatrix
         in="SourceGraphic"
         values="0 0 0 0 1 0 0 0 0 1 0 0 0 0 0 0 0 -1 1 0 "
         result="colormatrix3"
         id="feColorMatrix160" /><feBlend
         in2="offset3"
         mode="multiply"
         result="blend3"
         id="feBlend160" /></filter></defs><g
     inkscape:label="Camada 1"
     inkscape:groupmode="layer"
     id="layer1"><path
       id="path2-11"
       style="display:inline;fill:#000000;fill-opacity:1"
       d="m 2.4828893,-1.6495748e-5 c -1.62959501,0 -2.29236601,0.283407995748 -2.29236601,0.979267995748 0,0.189177 0.125977,0.343649 0.280086,0.343649 0.07724,0 0.13037,-0.02752 0.153479,-0.07235 0.06566,0.04582 0.15141,0.07235 0.256315,0.07235 0.05745,0 0.106331,0.0052 0.14727801,0.01602 -0.07847,0.32567 -0.18994601,0.7311 -0.32246101,1.160136 -0.303331,0.98207 -0.487658,1.95273 -0.409278,2.156974 0.304083,0.792426 1.84677701,0.263656 1.70067201,-0.58291 -0.06791,-0.393475 0.09706,-0.518687 0.767395,-0.583427 1.449443,-0.139989 2.324385,-1.718513 1.650545,-2.977596 C 4.1885093,0.0897245 3.8508873,-1.6495748e-5 2.4828893,-1.6495748e-5 Z M 2.9557283,0.8965695 c 0.09266,-0.0037 0.140824,0.166519 0.09922,0.538468 -0.04758,0.42534 -0.247762,0.826082 -0.444934,0.890902 -0.2662,0.08751 -0.309398,-0.0432 -0.168465,-0.508496 0.177039,-0.584504 0.387208,-0.915839 0.514179,-0.920874 z m 7.3897297,2.669088 c -0.4993027,0.02481 -0.6299357,0.242606 -0.6299357,0.665075 0,0.672913 0.4728207,0.869442 3.8364587,1.594218 1.455209,0.313559 3.598333,0.783723 4.7625,1.044898 1.164167,0.261175 3.069167,0.677504 4.233333,0.925008 2.204525,0.468687 6.663517,1.463112 9.708451,2.165242 1.45607,0.3357555 1.78518,0.5096245 1.85208,0.9787525 0.0771,0.541395 0.256759,0.57842 3.520709,0.727604 1.89177,0.08647 4.27302,0.358513 5.29167,0.604098 1.69371,0.408339 4.45989,1.02441 9.60974,2.140954 1.0652,0.230947 2.67256,0.602684 3.57188,0.82579 0.89933,0.223106 2.58754,0.622456 3.75171,0.887801 2.77508,0.632516 3.67848,0.592008 3.78685,-0.169499 0.10318,-0.725137 0.14812,-0.71212 -12.65039,-3.520199 -4.27436,-0.937823 -7.19843,-1.590116 -9.12813,-2.035534 -1.01864,-0.235127 -2.82912,-0.9448085 -4.02301,-1.5771655 -2.43317,-1.288745 -2.97488,-1.392241 -3.18017,-0.607198 -0.15795,0.604046 -0.0291,0.613266 -4.041598,-0.290422 -1.236927,-0.278578 -4.21349,-0.928907 -6.614584,-1.445389 -5.248775,-1.129026 -7.20393,-1.566946 -10.814843,-2.421558 -1.47531,-0.349168 -2.343418,-0.517284 -2.842721,-0.492476 z m 0.362252,4.912878 c -0.8236357,-0.0096 -0.9921877,0.07929 -0.9921877,0.523999 0,0.712141 0.5107627,0.885749 6.3499997,2.1559415 2.692135,0.585612 5.609167,1.223375 6.482292,1.417484 0.873125,0.194109 3.01625,0.670313 4.7625,1.058334 1.74625,0.38802 3.472656,0.759976 3.836458,0.826306 2.339373,0.426498 2.880893,0.678409 2.962093,1.378727 l 0.0806,0.697115 3.30728,0.0036 c 3.3567,0.0037 3.27008,-0.01045 11.37708,1.861902 0.94589,0.218457 4.27964,0.963681 7.40833,1.655713 l 5.68855,1.257805 -0.093,1.182356 c -0.0511,0.650251 -0.11069,1.19715 -0.13229,1.21543 -0.0795,0.06716 -3.79451,-0.642936 -5.46324,-1.044381 -0.94588,-0.227551 -2.85088,-0.659345 -4.23333,-0.959631 -8.99434,-1.953696 -9.51113,-2.097817 -11.84889,-3.305225 -1.2841,-0.663214 -2.47328,-1.206128 -2.64221,-1.206128 -0.16893,0 -0.43869,0.245838 -0.59945,0.54622 -0.32204,0.601746 -0.1288,0.615676 -4.224008,-0.298689 -1.23694,-0.276176 -2.78475,-0.618993 -3.439594,-0.761711 -4.319958,-0.941499 -11.867883,-2.638919 -15.03991,-3.382223 -1.783115,-0.417839 -2.283584,-0.269385 -2.115633,0.627352 0.09839,0.525342 2.268832,1.184648 7.365959,2.238107 1.382448,0.285721 3.823229,0.817993 5.423958,1.182356 3.804691,0.866037 6.924673,1.560746 9.458848,2.106332 1.86531,0.401584 2.05051,0.498867 2.05051,1.07642 0,0.734412 -0.0824,0.717001 3.0825,0.641821 2.32284,-0.05517 3.85547,0.186322 9.22063,1.453141 2.0624,0.486974 8.81191,1.962236 10.84792,2.370915 2.61206,0.52431 2.64328,0.544982 3.13675,2.110466 0.60039,1.904636 2.49229,4.375466 4.23851,5.534545 1.58597,1.052706 4.70467,2.017448 6.52053,2.017448 1.31922,0 3.93598,-0.609652 5.09271,-1.186491 0.71846,-0.358286 0.75139,-0.338873 1.72548,1.006141 1.99765,2.758297 2.49902,3.663913 2.19573,3.967199 -0.57709,0.5771 -0.25355,1.169917 1.43609,2.630331 1.9227,1.661865 2.42622,2.232541 4.10052,4.649328 0.97213,1.403234 1.1073,1.745076 0.83716,2.116667 -1.54478,2.124931 -1.43708,4.4954 0.29817,6.553088 0.76859,0.911417 0.57137,1.430404 -0.54363,1.430404 -1.71393,0 -2.92622,1.552806 -2.59416,3.322794 0.21108,1.125187 -0.16146,1.704289 -1.09657,1.704289 -0.36873,0 -0.99233,0.342751 -1.44281,0.793231 -0.65556,0.65555 -0.78559,0.98881 -0.74879,1.91822 0.0775,1.95687 0.0701,1.97134 -1.08107,2.15542 -0.62666,0.1002 -1.35806,0.45424 -1.7508,0.84698 -0.59746,0.5975 -0.66131,0.83899 -0.55552,2.1146 0.13366,1.61181 -0.002,1.81072 -1.40974,2.06395 -0.52572,0.0946 -1.15595,0.39338 -1.40043,0.66353 -0.57371,0.63394 -0.82315,2.18719 -0.46043,2.86494 0.40196,0.75108 -0.11737,1.29639 -1.41645,1.48725 -1.13943,0.1674 -2.24896,1.15994 -2.24896,2.01176 0,0.4987 0.0751,0.47422 -5.42396,1.73323 -1.62063,0.37104 -4.64406,1.03135 -9.12813,1.99316 -1.38244,0.29653 -3.76369,0.82589 -5.29166,1.17616 -7.75279,1.77721 -7.73951,1.7751 -10.43554,1.6831 -1.91884,-0.0655 -2.43956,-0.0789 -2.64222,0.17415 l -0.0191,5.1e-4 v 0.0264 c -0.0583,0.0868 -0.0878,0.20118 -0.12402,0.35088 -0.17656,0.73058 -0.24011,0.75419 -4.63848,1.72341 -1.746237,0.3848 -4.425141,0.98529 -5.95311,1.33429 -1.527968,0.349 -3.96875,0.88865 -5.423958,1.19941 -1.455208,0.31076 -3.360208,0.72442 -4.233333,0.91932 -0.873125,0.1949 -2.778126,0.61885 -4.233334,0.94206 -4.829796,1.07271 -5.0195117,1.13873 -5.1118317,1.78025 h 5.17e-4 c -0.07629,0.5301 0.02712,0.58736 1.0583327,0.58136 0.628585,-0.003 1.618815,-0.1217 2.200899,-0.26303 0.582083,-0.14133 2.725209,-0.618 4.7625,-1.05885 2.037292,-0.44084 4.478072,-0.9817 5.423958,-1.20199 1.555902,-0.36235 4.616595,-1.0469 13.05862,-2.92076 1.57955,-0.35061 2.98632,-0.70818 3.12643,-0.79478 0.14011,-0.0866 0.32007,0.0927 0.39997,0.39843 0.0748,0.28613 0.22143,0.45727 0.47956,0.50849 0.0331,0.0301 0.0646,0.047 0.092,0.047 0.0149,0 0.0506,-0.0104 0.10439,-0.0305 0.50318,-0.007 1.3214,-0.33166 2.62309,-0.99736 1.98641,-1.01586 2.85431,-1.2751 8.02949,-2.3983 1.45521,-0.31584 3.83646,-0.84994 5.29167,-1.18701 1.4552,-0.33708 3.5388,-0.80932 4.6302,-1.04955 1.09141,-0.24024 3.88938,-0.86949 6.21771,-1.39784 5.24482,-1.19016 6.41046,-1.30652 7.8636,-0.78548 0.62293,0.22336 2.08473,0.6977 3.2489,1.05419 3.2683,1.00081 12.32659,3.87418 13.35112,4.23489 0.61892,0.2179 0.96591,0.5343 1.07022,0.97617 0.18383,0.77875 0.88186,0.97551 3.62149,1.02061 1.32413,0.0218 2.61213,0.26563 4.233335,0.8015 1.28159,0.42362 4.8304,1.56213 7.88634,2.53059 3.05594,0.96846 6.08338,1.93179 6.72776,2.14044 1.657,0.53655 2.59049,0.50748 2.66082,-0.0796 0.003,-0.012 0.004,-0.0246 0.004,-0.0377 0,-0.004 -3.3e-4,-0.009 -5.2e-4,-0.0129 2.8e-4,-0.008 5.2e-4,-0.0158 5.2e-4,-0.0238 0,-0.66539 -0.66249,-0.96495 -5.29167,-2.39106 -1.96453,-0.60521 -4.94109,-1.54637 -6.61458,-2.09187 -1.67349,-0.54549 -4.04249,-1.3099 -5.26428,-1.6986 -1.374165,-0.43718 -2.971565,-1.20893 -4.188895,-2.02313 -2.17875,-1.45724 -2.52434,-1.54883 -3.04271,-0.80874 -0.34652,0.49474 -0.39084,0.49529 -1.80092,0.0305 -1.98897,-0.65562 -7.97268,-2.57941 -13.28808,-4.27209 -2.43869,-0.7766 -4.39642,-1.5252 -4.35012,-1.66398 0.1165,-0.34951 0.66485,-0.5972 1.90479,-0.8599 0.84747,-0.17954 1.14963,-0.41004 1.51515,-1.15703 0.379,-0.77454 0.40551,-1.09852 0.1571,-1.9079 -0.37741,-1.22974 0.0125,-1.78955 1.24695,-1.78955 0.65477,0 1.04726,-0.20997 1.58544,-0.84956 0.63305,-0.75238 0.69741,-1.00101 0.55965,-2.16421 -0.1859,-1.56957 0.0992,-2.01332 1.2945,-2.01332 0.65435,0 1.04731,-0.21032 1.58388,-0.84801 0.61894,-0.73554 0.69214,-1.00378 0.55242,-2.02313 -0.16843,-1.22887 0.12044,-1.89136 0.82424,-1.89136 0.82748,0 2.15458,-0.8622 2.45928,-1.597816 0.23915,-0.57746 0.2441,-0.977577 0.0207,-1.618506 -0.36375,-1.043446 -0.14846,-1.306493 1.36891,-1.6738 0.80661,-0.195253 1.2585,-0.502614 1.64486,-1.118795 0.49489,-0.789275 0.63807,-0.850395 2.01435,-0.859895 1.83885,-0.01265 3.37692,-1.002657 4.09846,-2.638082 l 0.4749,-1.07642 h 6.960825 c 6.78415,0 6.9603,0.01341 6.9603,0.529166 0,0.68712 0.63428,0.685141 3.33106,-0.01085 1.83711,-0.474125 2.91139,-0.540485 8.79016,-0.542085 3.68341,-0.001 6.9779,-0.108301 7.321,-0.238746 0.38785,-0.14746 0.59737,-0.417707 0.55397,-0.714685 -0.0262,-0.179277 -0.12952,-0.293664 -0.6966,-0.37517 -0.55327,-0.180605 -1.96843,-0.227592 -5.90971,-0.234095 -0.27105,-0.0056 -0.55317,-0.01165 -0.84698,-0.01757 -6.4947,-0.130875 -7.63446,-0.218455 -9.46764,-0.727604 -2.63999,-0.733238 -3.01661,-0.731201 -3.12281,0.01654 l -0.0708,0.49816 c -0.0996,0.04042 -0.26717,0.07413 -0.52142,0.10232 h -0.0103 l -6.30659,0.06563 -5.928335,0.06149 h -0.90072 l -0.37258,-0.892452 c -0.8841,-2.115951 -2.8854,-3.253947 -5.25808,-2.989999 l -1.3534,0.150379 -1.62988,-2.433443 c -0.89654,-1.338384 -1.92793,-3.266881 -2.29185,-4.285527 -1.0502,-2.939572 -0.9714,-2.81818 -1.77198,-2.7342 -0.65458,0.06866 -0.91197,-0.189507 -2.49029,-2.501139 -1.353,-1.981636 -1.66917,-2.612502 -1.36684,-2.728516 0.56932,-0.218471 2.38055,-2.699185 3.08301,-4.222481 0.45996,-0.997442 0.59315,-1.709159 0.65164,-3.780648 0.0768,-0.621879 0.0877,-1.109595 0.0341,-1.561661 -2e-5,-1.71e-4 2e-5,-3.47e-4 0,-5.17e-4 l 0.0419,-2.037602 3.66386,-1.148767 c 2.01516,-0.631826 5.06664,-1.602347 6.78098,-2.156458 2.97688,-0.962189 3.12892,-0.985335 3.38274,-0.511079 0.39774,0.743196 0.93184,0.616443 2.921785,-0.694532 2.18865,-1.441891 2.73422,-1.683466 6.45335,-2.856156 10.13157,-3.1946125 9.92188,-3.1143405 9.92188,-3.7889165 0,-0.919361 -0.83011,-0.830903 -5.02243,0.535368 -9.03528,2.9445865 -9.30656,3.0156425 -12.24163,3.2085895 l -2.844275,0.187069 v 0.751892 c 0,0.662626 -0.13358,0.786502 -1.12448,1.042831 -0.61847,0.159986 -1.60073,0.457014 -2.18282,0.660424 -1.30907,0.457456 -9.70648,3.086413 -10.01282,3.134693 -0.12268,0.01934 -0.36082,-0.200735 -0.52917,-0.489376 -1.69963,-2.913901 -3.06398,-4.300891 -5.333,-5.420858 -5.81141,-2.8684645 -12.63516,-0.551679 -15.53394,5.274614 -0.50721,1.019438 -0.98237,1.793195 -1.05627,1.719275 -0.0739,-0.07392 -0.9553,-0.300109 -1.95853,-0.502812 -1.00323,-0.202704 -3.25293,-0.687657 -4.99918,-1.077454 -1.74625,-0.389796 -3.88938,-0.864029 -4.7625,-1.054199 -2.43453,-0.530251 -6.42338,-1.395696 -8.33438,-1.808158 -0.94588,-0.204158 -2.76072,-0.91197 -4.03282,-1.573031 -2.27121,-1.180258 -3.3755,-1.362927 -3.3755,-0.558105 0,0.454229 -0.0181,0.454029 -2.116663,-0.02584 -0.945887,-0.216293 -3.148543,-0.696238 -4.894793,-1.066601 -1.74625,-0.370363 -3.710782,-0.795379 -4.365625,-0.944645 C 22.55442,10.941507 20.173171,10.39722 17.917598,9.8815435 12.024494,8.5342445 11.802241,8.4912385 10.707702,8.4785285 Z m 61.555404,4.5588955 h 5.2e-4 c 0.0214,0.0037 0.0398,0.0087 0.0548,0.01447 l -2.1394,2.054138 c -1.20243,1.154381 -3.20371,3.154177 -4.44727,4.444174 l -2.19987,2.282031 c -0.005,-0.0295 -0.009,-0.06379 -0.0114,-0.101803 l 0.30644,-1.019059 c 0.19602,-0.651325 0.3945,-1.226348 0.4408,-1.277958 0.54312,-0.605295 5.00268,-5.102587 5.32164,-5.366598 0.23451,-0.194108 0.95537,-0.511977 1.60145,-0.706416 z m 47.480306,0.101802 c -0.42314,0.01135 -1.17405,0.235965 -2.76004,0.762228 -1.58942,0.527402 -3.24694,1.058688 -3.6835,1.180806 -0.43656,0.122118 -2.34156,0.723756 -4.23333,1.33687 -2.71659,0.880432 -3.99574,1.148854 -6.08542,1.277441 -2.59799,0.159865 -2.64751,0.175073 -2.72541,0.84491 -0.0841,0.722961 0.0676,0.667124 -11.826666,4.389913 -2.7004,0.845193 -2.89316,0.949894 -2.99517,1.635559 -0.1272,0.855025 0.93598,0.745236 4.89066,-0.505913 1.86786,-0.59094 3.93196,-1.243705 4.5868,-1.450557 0.65484,-0.206852 2.12677,-0.675939 3.27112,-1.042314 2.424486,-0.776231 2.705376,-0.802191 2.909896,-0.269234 0.25785,0.671963 1.01515,0.443325 3.05408,-0.921908 1.59998,-1.07132 2.81262,-1.582699 6.61458,-2.79001 9.88421,-3.138726 10.39098,-3.365812 9.49968,-4.257105 -0.12759,-0.127588 -0.2634,-0.197494 -0.51728,-0.190686 z m -44.015406,0.203606 c 0.0602,-0.0023 0.1161,0.0048 0.17105,0.0186 0.61165,0.153515 0.24946,0.576925 -4.87308,5.705078 -3.04342,3.04675 -5.67074,5.53778 -5.83892,5.53558 -1.19023,-0.01577 -0.66003,-0.704521 4.55011,-5.910234 4.42302,-4.419265 5.40864,-5.327102 5.99084,-5.349027 z m 3.23547,1.417484 c 0.10382,-0.0017 0.17705,0.04734 0.24959,0.119889 0.4221,0.422099 0.038,0.859585 -6.43785,7.336503 -3.78757,3.788204 -6.96011,6.887435 -7.05021,6.887435 -0.0901,0 -0.2795,-0.216418 -0.42116,-0.481107 -0.21843,-0.408147 0.78402,-1.52261 6.60114,-7.336503 5.34144,-5.338475 6.55824,-6.518172 7.05849,-6.526217 z m 2.35541,2.405538 c 0.11024,-2.96e-4 0.17954,0.06367 0.24908,0.15658 0.36796,0.491624 -1.6e-4,0.912303 -6.42648,7.342187 -3.74929,3.751376 -6.89271,6.820772 -6.98511,6.820772 -0.0924,0 -0.3227,-0.186726 -0.51211,-0.414961 -0.2984,-0.35955 0.58227,-1.340175 6.59443,-7.342188 5.35682,-5.347775 6.60249,-6.561105 7.08019,-6.56239 z m 1.49241,2.942456 c 0.0728,0 0.20279,0.267891 0.28939,0.595313 0.13336,0.504049 -0.72352,1.477522 -5.58932,6.349999 -5.31427,5.321573 -6.38075,6.184184 -6.80269,5.501473 -0.1361,-0.22022 11.75239,-12.446785 12.10262,-12.446785 z m 0.38499,4.380611 h 5.2e-4 l 5.2e-4,5.17e-4 h 5.1e-4 v 5.17e-4 l 5.2e-4,5.16e-4 c 0.0235,0.03592 -0.0731,0.500817 -0.22169,1.056784 -0.21305,0.797373 -0.97064,1.74117 -3.21221,4.002339 -1.65521,1.669689 -3.23127,3.029607 -3.61683,3.121257 -0.37581,0.08933 -0.87608,0.219658 -1.11208,0.289388 -0.23599,0.06973 1.49041,-1.810994 3.83646,-4.17959 2.34605,-2.368595 4.29188,-4.299928 4.32428,-4.291728 z m 18.091916,6.940662 c -0.4714,-0.0084 -0.98118,0.07053 -1.329626,0.217041 -1.66464,0.699932 -2.47345,3.47089 -1.34307,4.601269 0.64724,0.647241 2.325576,0.708328 3.452496,0.125574 0.87362,-0.451768 0.95944,-0.706424 0.39532,-1.174605 -0.30541,-0.253465 -0.51009,-0.232358 -0.98495,0.100252 -0.8001,0.560411 -1.46943,0.530416 -1.661396,-0.07441 -0.18502,-0.582954 0.241046,-1.8178 0.865066,-2.507341 0.42732,-0.472181 0.44758,-0.46774 0.58911,0.131775 0.0803,0.340086 0.23328,0.524239 0.51004,0.591179 0.0552,0.02685 0.11766,0.03559 0.18604,0.02635 0.0319,0.002 0.0653,0.0031 0.0997,0.0031 0.47481,0 0.61011,-0.08434 0.6413,-0.586527 0.14583,-0.196054 0.14879,-0.334822 0.006,-0.546737 -0.0167,-0.659624 -0.14722,-0.734108 -0.97513,-0.868681 -0.14127,-0.02296 -0.294,-0.03545 -0.45114,-0.03824 z m -9.295546,0.05581 c -0.60326,0 -0.87559,0.481266 -1.30277,2.302185 -0.31234,1.331422 -0.90033,2.189395 -1.25625,1.83348 -0.0953,-0.09526 0.0323,-0.82418 0.28319,-1.620056 0.59624,-1.891497 0.2988,-2.583185 -1.05937,-2.464449 -1.08946,0.09525 -2.04753,1.278364 -1.48828,1.837614 0.23893,0.238935 0.41791,0.224702 0.76894,-0.06098 0.41169,-0.335048 0.43516,-0.31947 0.23306,0.156579 -0.45279,1.066478 -0.46535,2.414571 -0.0263,2.853573 0.12521,0.125211 0.44941,0.224852 0.87178,0.296106 0.27002,0.147622 0.45824,0.17132 0.71158,0.0863 1.19095,0.09948 2.65247,0.02782 3.00034,-0.254248 0.47912,-0.388463 0.42727,-1.791105 -0.0661,-1.791105 -0.21828,0 -0.39687,0.138735 -0.39687,0.308509 0,0.169815 -0.0598,0.249236 -0.13281,0.176216 -0.073,-0.07302 0.0439,-0.71777 0.25993,-1.432987 0.451,-1.493192 0.31952,-2.226738 -0.39997,-2.226738 z m 2.73316,3.471106 c -0.1149,0.0015 -0.2366,0.04292 -0.36225,0.132292 -0.30687,0.06234 -0.41503,0.229762 -0.46819,0.606164 -0.0542,0.383337 0.0782,0.731663 0.33228,0.873849 0.32846,0.183817 0.36071,0.352462 0.14418,0.75706 -0.15323,0.28628 -0.20696,0.637283 -0.11886,0.779797 0.0691,0.111854 0.16148,0.184976 0.26562,0.222725 0.0276,0.01432 0.0585,0.02231 0.092,0.02377 0.2863,0.04564 0.63101,-0.145256 0.83509,-0.526583 0.15874,-0.296602 0.25224,-1.040742 0.20774,-1.653646 -0.0654,-0.901304 -0.11555,-1.077294 -0.60668,-1.10846 -0.0982,-0.07028 -0.206,-0.108451 -0.32091,-0.10697 z m -1.44849,12.924793 c 0.18312,0.0054 0.32398,0.07997 0.41445,0.226342 0.074,0.119812 -0.79512,1.142326 -1.93167,2.272213 -1.88938,1.878295 -2.07979,2.002989 -2.22209,1.458826 -0.20677,-0.790695 0.0551,-1.222947 1.63763,-2.703194 0.8892,-0.831739 1.63372,-1.267993 2.10168,-1.254187 z m 46.432826,0.56534 c -0.44735,0.02636 -0.94377,0.648145 -1.19993,1.62419 -0.23932,0.08234 -0.26773,0.1732 -0.0899,0.412378 -0.0496,0.283977 -0.0791,0.590603 -0.0837,0.915706 -0.0123,0.872516 0.0416,1.690311 0.11989,1.816944 0.38168,0.617572 2.22777,0.06252 2.22777,-0.669727 0,-0.05421 -0.0191,-0.08482 -0.0522,-0.09353 0.0337,-0.08982 0.0522,-0.184638 0.0522,-0.28267 0,-0.214033 -0.0308,-0.29669 -0.12248,-0.257349 -9.5e-4,-0.001 -0.002,-0.0021 -0.003,-0.0031 -0.0815,-0.08146 -0.29491,4.7e-5 -0.47439,0.180868 -0.23103,0.232762 -0.23182,0.282057 0.0372,0.188619 -0.2604,0.174935 -0.41971,0.09821 -0.47439,-0.229443 0.0655,-0.340294 0.27335,-0.750321 0.5178,-0.994772 0.23729,-0.237317 0.36654,-0.437508 0.41031,-0.695565 0.0571,-0.08853 0.0611,-0.16838 0.0171,-0.253731 -0.003,-0.150294 -0.0251,-0.321955 -0.0636,-0.527099 -0.15242,-0.812463 -0.47062,-1.152219 -0.81855,-1.131714 z m -44.211256,1.559594 c 0.11351,0 0.20619,0.2795 0.20619,0.621151 0,0.413724 -0.52363,1.120637 -1.56786,2.116667 -0.86232,0.822516 -1.60645,1.479162 -1.65365,1.459342 -0.0472,-0.01982 -0.33854,-0.0856 -0.6475,-0.146244 -0.48583,-0.09536 -0.29012,-0.376387 1.44745,-2.080493 1.10499,-1.083705 2.1019,-1.970423 2.21537,-1.970423 z m 6.008936,7.702373 c -0.38763,0.01586 -0.85803,0.181619 -1.33015,0.517797 -0.427506,0.304425 -0.674486,0.5732 -0.735876,0.728121 -0.0542,0.01485 -0.0998,0.01709 -0.13746,0.0067 -0.018,-0.108381 -0.0274,-0.235201 -0.0274,-0.380338 0,-0.633711 -0.12263,-0.783768 -0.69453,-0.850078 -0.66783,-0.07744 -0.71668,0.01081 -1.28209,2.299085 -0.32342,1.308691 -0.50984,2.505871 -0.41444,2.660291 0.52365,0.84729 1.72961,-0.0647 1.72961,-1.30792 0,-0.43455 0.13741,-0.545103 0.59531,-0.48007 0.45581,0.0647 0.62631,0.30124 0.7276,1.01027 0.117556,0.82293 0.229726,0.93546 1.009236,1.01026 1.09754,0.10535 1.6366,-0.32476 1.6366,-1.30688 0,-0.857169 -0.43015,-0.99264 -0.94982,-0.29869 -0.31763,0.42415 -0.33462,0.41543 -0.20308,-0.10749 0.0937,-0.372355 -0.0522,-0.766878 -0.41962,-1.134296 -0.70242,-0.702413 -0.53391,-1.01892 0.46509,-0.872298 0.60037,0.08812 0.7983,-0.0032 0.90692,-0.418579 0.18625,-0.712202 -0.22988,-1.102339 -0.87591,-1.075903 z m 6.93652,1.582849 c -0.16438,0.0062 -0.59768,0.386594 -1.03146,1.02681 -1.00373,1.481419 -0.80489,4.241299 0.40566,5.629099 0.22213,0.25466 0.58505,0.46302 0.80615,0.46302 0.005,0 0.009,9e-5 0.0129,0 0.26994,0.10508 0.35323,-0.14445 0.17829,-0.60306 0.2892,0.15092 0.20634,-0.14909 -0.20567,-0.98185 -0.67191,-1.35796 -0.6625,-2.64532 0.0289,-3.971841 0.44354,-0.85094 0.50704,-1.162716 0.16899,-0.974617 0.085,-0.285129 -0.0324,-0.39765 -0.34675,-0.315227 0.0794,-0.188991 0.0632,-0.275354 -0.0171,-0.272334 z m 14.24048,0.01757 c -0.0654,0.0054 -0.0906,0.07154 -0.0667,0.197404 -0.34238,-0.242912 -0.47869,-0.08828 -0.36174,0.337447 -0.2608,-0.125377 -0.26519,0.171797 0.14986,0.843359 0.72308,1.170029 0.73823,3.184219 0.032,4.255539 -0.35137,0.53304 -0.42903,0.81704 -0.27492,1.06247 9e-4,0.0285 0.0213,0.0541 0.0558,0.0754 0.38267,0.45737 0.72356,0.31738 1.38338,-0.56637 0.3867,-0.51794 0.51642,-1.00296 0.54054,-2.1947 0.0601,-0.39102 0.0574,-0.78959 -0.006,-1.18339 -0.0359,-1.03299 -0.17301,-1.488879 -0.53485,-1.973515 -0.43583,-0.583752 -0.77389,-0.865543 -0.91777,-0.853694 z m -18.09657,0.746207 c -0.24823,-0.004 -0.48503,0.14547 -0.6041,0.468189 -0.094,0.254662 -0.27713,0.534973 -0.40721,0.622703 -0.19826,0.13374 -0.33895,2.17944 -0.22996,3.34604 0.0321,0.34405 1.26606,0.44922 1.99368,0.17001 0.23018,-0.0883 0.41858,-0.412 0.41858,-0.71985 0,-0.36703 -4.8e-4,-0.493 -0.11783,-0.36897 -0.0692,-0.0637 -0.21723,-0.0429 -0.42426,0.10025 0.0504,-0.13323 -0.0202,-0.18437 -0.25166,-0.0413 -0.45885,0.28358 -0.28632,-0.61908 0.2129,-1.11414 0.22723,-0.22534 0.35499,-0.36878 0.39843,-0.55966 0.0988,-0.0872 0.0899,-0.20901 -0.008,-0.4103 -0.0329,-0.1893 -0.0977,-0.43095 -0.19069,-0.76016 -0.13253,-0.469137 -0.47098,-0.727692 -0.79013,-0.732772 z m 22.22345,1.063502 c -1.15766,0 -2.20202,1.35449 -1.52187,1.70221 0.0505,0.0496 0.1049,0.069 0.1664,0.0574 0.0431,0.009 0.0904,0.0158 0.14159,0.0196 0.28818,0.0217 0.58943,-0.067 0.66973,-0.19689 0.23776,-0.38471 0.94532,0.0291 1.20147,0.7028 0.14692,0.3865 0.13463,0.89521 -0.0315,1.33222 -0.14784,0.3889 -0.20491,0.87403 -0.12661,1.07797 0.32077,0.83593 1.02493,0.17112 1.46968,-1.38803 0.24906,-0.87312 0.53842,-1.82563 0.64337,-2.11667 0.0996,-0.27625 0.0747,-0.3271 -0.0997,-0.14056 0.11226,-0.40527 0.172,-0.68426 0.14056,-0.71571 -0.0475,-0.0475 -0.24582,0.0815 -0.47233,0.29869 -0.0482,-0.0628 -0.12638,-0.10387 -0.21445,-0.10387 -0.14552,0 -0.26459,0.18551 -0.26459,0.41237 0,0.0662 0.01,0.12295 0.0279,0.16743 l -0.20516,0.22015 -0.21549,-0.23772 v -5.1e-4 c -0.0202,-0.48771 -0.65941,-1.09088 -1.30896,-1.09088 z m -15.69207,0.0724 c -0.77969,0.0115 -1.47491,0.69502 -1.12241,1.25055 0.19581,0.30862 0.24401,0.33252 0.25373,0.0501 0.0496,0.0263 0.11526,0.0348 0.19741,0.0186 0.0692,-0.0136 0.12209,-0.002 0.15864,0.0372 -0.0537,0.23506 -0.1304,0.5221 -0.23047,0.86196 -0.11072,0.37602 -0.002,0.73723 0.31936,1.05834 0.38537,0.38537 0.80214,0.46871 1.98954,0.39791 0.91666,-0.0546 1.55299,-0.22337 1.63349,-0.43305 0.0498,-0.12972 0.0334,-0.20841 -0.0512,-0.23668 0.32744,-0.40904 0.26454,-0.69608 -0.18552,-0.69608 -0.11997,0 -0.2057,-0.0363 -0.262,-0.12454 0.0912,-0.23621 0.16959,-0.59202 0.19792,-0.93741 0.0632,-0.7709 -0.0178,-0.93565 -0.49351,-1.00355 -0.47303,-0.0676 -0.64399,0.14468 -1.01337,1.25676 -0.2444,0.73583 -0.49872,1.3379 -0.56482,1.3379 -0.0661,0 -0.0419,-0.58911 0.0537,-1.30948 0.1675,-1.26265 0.1479,-1.31664 -0.54415,-1.49033 -0.11203,-0.0281 -0.22503,-0.0399 -0.33642,-0.0382 z m 8.81187,0.016 c -1.59418,0.0919 -2.75199,1.68439 -1.99213,3.10419 0.20508,0.38319 0.55176,0.50948 1.41128,0.51159 0.16227,0.0141 0.32808,0.011 0.48938,-0.008 1.08502,-0.0432 1.52962,-0.25351 1.52962,-0.70022 0,-0.28162 -0.0469,-0.31844 -0.28267,-0.10077 0.0118,-0.0495 0.0181,-0.10089 0.0181,-0.15399 0,-0.16855 -0.0712,-0.22151 -0.2775,-0.15555 -0.0512,-0.0868 -0.25077,-0.0438 -0.50953,0.11782 -0.80221,0.50098 -1.26356,-0.0721 -0.82786,-1.02836 0.19653,-0.43134 0.40065,-0.60425 0.5085,-0.43046 0.0991,0.15976 0.41847,0.33202 0.70951,0.38292 0.34796,0.0609 0.50258,-0.0358 0.57878,-0.40514 0.0139,-0.0408 0.0207,-0.0824 0.0212,-0.12403 0.004,-0.0261 0.007,-0.0534 0.0103,-0.0816 0.068,-0.58765 -0.044,-0.7307 -0.68161,-0.87073 -0.24123,-0.053 -0.47764,-0.0705 -0.70538,-0.0574 z m -0.002,0.17621 c 0.008,0 0.0167,1.6e-4 0.0248,5.2e-4 -0.0412,10e-4 -0.0825,0.004 -0.12299,0.008 0.0331,-0.005 0.0661,-0.008 0.0982,-0.008 z m -3.70365,2.11666 c -0.83262,0 -0.92071,0.17351 -0.60617,1.19837 0.13486,0.4394 0.21399,0.65594 0.30903,0.6997 -0.007,0.0404 -0.0169,0.0781 -0.03,0.11214 -0.11822,0.30807 -0.0565,0.40546 0.20257,0.31936 0.0995,-0.033 0.21647,-0.13795 0.32659,-0.28215 -0.10011,0.43616 -0.0524,0.38977 0.29714,-0.0475 0.70495,-0.88182 0.42607,-1.99988 -0.49919,-1.99988 z m -30.251896,4.23333 c -0.87107,0 -2.17558,1.21969 -2.17558,2.03399 0,0.76059 0.33355,0.77237 1.31465,0.047 0.85867,-0.63485 1.38025,-0.54086 1.96112,0.35243 0.34826,0.5355 0.35123,0.84655 0.0222,2.56316 -0.20579,1.07369 -0.30667,2.06244 -0.22428,2.19779 0.083,0.13374 0.34503,0.20586 0.5824,0.1602 0.28574,-0.055 0.58431,-0.6648 0.88211,-1.80092 0.24758,-0.94458 0.69726,-2.2924 0.99891,-2.99569 0.1731,-0.4036 0.32656,-0.85016 0.4253,-1.21697 0.11236,-0.13417 0.1428,-0.32662 0.10438,-0.49041 0.007,-0.0559 0.0105,-0.10441 0.01,-0.1447 -0.003,-0.17891 -0.0527,-0.20958 -0.14573,-0.0966 -0.0569,-0.0499 -0.12854,-0.0801 -0.21394,-0.0801 -0.0551,0 -0.11991,0.0312 -0.18913,0.0868 -0.0194,-0.0686 -0.0867,-0.0868 -0.19379,-0.0868 -0.12217,0 -0.37063,0.32657 -0.55242,0.72554 l -0.33073,0.72553 -0.34416,-0.81855 c -0.36978,-0.87944 -0.83908,-1.16169 -1.93115,-1.16169 z m 38.536656,29.25971 c -0.90414,0.046 -1.2906,0.35893 -1.27072,0.98237 0.015,0.47059 0.029,0.53494 0.15503,0.23048 0.0674,0.12888 0.21734,0.17249 0.41031,0.0532 0.013,-0.008 0.0254,-0.0136 0.0367,-0.0165 -0.0473,0.35476 -0.17482,0.87627 -0.35295,1.4087 -0.28559,0.853656 -0.52155,1.700656 -0.52555,1.882566 -0.008,0.39703 1.82904,0.46176 1.87844,0.0661 0.0181,-0.14552 0.048,-0.40853 0.0661,-0.58446 0.0182,-0.17594 0.42638,-0.40028 0.90743,-0.49868 1.05818,-0.21642 1.62078,-0.894066 1.62678,-1.959566 0.006,-1.1655 -0.22998,-1.36012 -1.85054,-1.5229 -0.42052,-0.0422 -0.77969,-0.0567 -1.08107,-0.0413 z m -122.0478277,0.0806 c -0.811688,-0.0106 -1.62157701,0.0819 -1.86603601,0.28474 -0.456226,0.37864 -0.547899,1.0666 -0.14211,1.0666 0.12151,0 0.2146,-0.0622 0.232027,-0.14625 0.0586,0.003 0.127821,-0.008 0.207223,-0.0387 0.04733,-0.0182 0.08934,-0.0329 0.12609001,-0.0429 -0.07473,0.78874 -0.53432901,2.373086 -0.87953301,2.796216 -0.1432,0.17553 -0.183797,0.44342 -0.08992,0.59531 0.09388,0.1519 0.580336,0.27595 1.08107101,0.27595 0.794733,0 0.910539,-0.0841 0.910539,-0.66146 0,-0.55492 0.124836,-0.66146 0.77463,-0.66146 1.384883,0 2.510223,-2.315196 1.523421,-3.134166 -0.252267,-0.20935 -1.065717,-0.32325 -1.877405,-0.33383 z m 0.492476,0.92501 c 0.09266,-0.004 0.140824,0.16652 0.09922,0.53847 -0.04758,0.42534 -0.247762,0.8261 -0.444934,0.8909 -0.2662,0.0875 -0.309398,-0.0432 -0.168465,-0.5085 0.177039,-0.58451 0.387208,-0.91584 0.514179,-0.92087 z m 122.7707817,0.16174 c 0.2889,0 0.33371,0.14915 0.17364,0.58188 -0.11835,0.31992 -0.37209,0.63393 -0.56328,0.69763 -0.23577,0.0786 -0.29142,-0.0307 -0.17311,-0.33899 0.096,-0.25004 0.17466,-0.56402 0.17466,-0.69764 0,-0.13362 0.1745,-0.24288 0.38809,-0.24288 z m -59.103366,2.910416 c -0.325,0 -0.55138,0.17107 -0.55138,0.41651 0,0.24643 0.18023,0.38133 0.44131,0.33073 0.22216,-0.0431 0.37993,-0.14096 0.46768,-0.25218 0.0703,-0.024 0.0907,-0.0624 0.0661,-0.11989 0.062,-0.1891 -0.0703,-0.37517 -0.42375,-0.37517 z"
       inkscape:label="path1" /></g></svg>
